<?xml version="1.0" encoding="utf-8"?>
<!-- Generator: Adobe Illustrator 23.1.0, SVG Export Plug-In . SVG Version: 6.00 Build 0)  -->
<svg version="1.1" id="Layer_1" xmlns="http://www.w3.org/2000/svg" xmlns:xlink="http://www.w3.org/1999/xlink" x="0px" y="0px"
	 viewBox="0 0 944 621" style="enable-background:new 0 0 944 621;" xml:space="preserve">
<style type="text/css">
	.st0{fill:#F1F1F4;}
	.st1{fill:#00B7FF;}
	.st2{fill:url(#SVGID_1_);}
	.st3{fill:url(#SVGID_2_);}
	.st4{fill:#E5E2FF;}
	.st5{fill:url(#SVGID_3_);}
	.st6{opacity:0.62;fill:url(#SVGID_4_);}
	.st7{opacity:0.62;fill:url(#SVGID_5_);}
	.st8{opacity:0.5;fill:url(#SVGID_6_);}
	.st9{fill:#FFFFFF;}
	.st10{fill:url(#SVGID_7_);}
	.st11{opacity:0.5;fill:url(#SVGID_8_);}
	.st12{opacity:0.5;fill:url(#SVGID_9_);}
	.st13{fill:url(#SVGID_10_);}
	.st14{fill:url(#SVGID_11_);}
	.st15{opacity:0.76;fill:url(#SVGID_12_);}
	.st16{opacity:0.76;fill:url(#SVGID_13_);}
	.st17{opacity:0.76;fill:url(#SVGID_14_);}
	.st18{fill:#FE9083;}
	.st19{fill:url(#SVGID_15_);}
	.st20{opacity:0.5;fill:url(#SVGID_16_);}
	.st21{fill:url(#SVGID_17_);}
	.st22{opacity:0.5;fill:url(#SVGID_18_);}
	.st23{fill:url(#SVGID_19_);}
	.st24{fill:url(#SVGID_20_);}
	.st25{fill:#CB4D7A;}
	.st26{fill:#EE8183;}
	.st27{fill:url(#SVGID_21_);}
	.st28{opacity:0.6;fill:url(#SVGID_22_);}
	.st29{fill:url(#SVGID_23_);}
	.st30{fill:#E28183;}
	.st31{opacity:0.91;fill:url(#SVGID_24_);}
	.st32{fill:url(#SVGID_25_);}
	.st33{opacity:0.6;fill:url(#SVGID_26_);}
	.st34{fill:url(#SVGID_27_);}
	.st35{fill:url(#SVGID_28_);}
	.st36{opacity:0.91;fill:url(#SVGID_29_);}
	.st37{opacity:0.5;fill:url(#SVGID_30_);}
	.st38{opacity:0.5;fill:url(#SVGID_31_);}
	.st39{opacity:0.5;fill:url(#SVGID_32_);}
	.st40{opacity:0.5;fill:url(#SVGID_33_);}
	.st41{opacity:0.5;fill:url(#SVGID_34_);}
	.st42{opacity:0.5;fill:url(#SVGID_35_);}
	.st43{opacity:0.5;fill:url(#SVGID_36_);}
	.st44{opacity:0.5;fill:url(#SVGID_37_);}
	.st45{opacity:0.5;fill:url(#SVGID_38_);}
	.st46{opacity:0.76;fill:url(#SVGID_39_);}
	.st47{opacity:0.5;fill:url(#SVGID_40_);}
	.st48{opacity:0.3;fill:url(#SVGID_41_);}
	.st49{opacity:0.5;fill:url(#SVGID_42_);}
	.st50{opacity:0.5;fill:url(#SVGID_43_);}
	.st51{opacity:0.5;fill:url(#SVGID_44_);}
	.st52{opacity:0.5;fill:url(#SVGID_45_);}
	.st53{fill:url(#SVGID_46_);}
	.st54{fill:#EBEFFF;}
	.st55{opacity:0.5;fill:url(#SVGID_47_);}
	.st56{opacity:0.3;fill:url(#SVGID_48_);}
	.st57{opacity:0.5;fill:url(#SVGID_49_);}
	.st58{opacity:0.5;fill:url(#SVGID_50_);}
	.st59{opacity:0.5;fill:url(#SVGID_51_);}
	.st60{opacity:0.5;fill:#7A4AC0;}
	.st61{fill:url(#SVGID_52_);}
	.st62{fill:url(#SVGID_53_);}
	.st63{fill:url(#SVGID_54_);}
	.st64{opacity:0.6;fill:url(#SVGID_55_);}
	.st65{fill:#38368E;}
	.st66{fill:url(#SVGID_56_);}
	.st67{fill:url(#SVGID_57_);}
	.st68{fill:#FFEBED;}
	.st69{fill:#7F9EC9;}
	.st70{fill:#131163;}
	.st71{fill:#C6659C;}
	.st72{fill:#CB5F7D;}
	.st73{fill:#9F4A8B;}
	.st74{fill:#FFBCAF;}
	.st75{opacity:0.6;fill:url(#SVGID_58_);}
	.st76{fill:url(#SVGID_59_);}
	.st77{fill:#D2726C;}
	.st78{opacity:0.6;fill:url(#SVGID_60_);}
	.st79{opacity:0.6;fill:url(#SVGID_61_);}
	.st80{opacity:0.5;fill:url(#SVGID_62_);}
	.st81{fill:url(#SVGID_63_);}
	.st82{fill:url(#SVGID_64_);}
	.st83{fill:url(#SVGID_65_);}
	.st84{opacity:0.8;fill:url(#SVGID_66_);}
	.st85{opacity:0.8;fill:url(#SVGID_67_);}
	.st86{fill:#34C7FF;}
	.st87{fill:url(#SVGID_68_);}
	.st88{fill:url(#SVGID_69_);}
	.st89{fill:url(#SVGID_70_);}
	.st90{opacity:0.6;fill:#36D1F7;}
	.st91{fill:#744CA2;}
	.st92{opacity:0.6;fill:url(#SVGID_71_);}
	.st93{opacity:0.3;fill:url(#SVGID_72_);}
	.st94{opacity:0.3;fill:url(#SVGID_73_);}
	.st95{opacity:0.3;fill:url(#SVGID_74_);}
	.st96{opacity:0.3;fill:url(#SVGID_75_);}
	.st97{fill:#D1D4FB;}
	.st98{fill:#E0FFFF;}
	.st99{fill:url(#SVGID_76_);}
	.st100{fill:url(#SVGID_77_);}
	.st101{opacity:0.81;fill:url(#SVGID_78_);}
	.st102{fill:#473DA2;}
	.st103{fill:url(#SVGID_79_);}
	.st104{fill:url(#SVGID_80_);}
	.st105{fill:url(#SVGID_81_);}
	.st106{fill:url(#SVGID_82_);}
	.st107{fill:url(#SVGID_83_);}
	.st108{fill:url(#SVGID_84_);}
	.st109{opacity:0.73;fill:url(#SVGID_85_);}
	.st110{fill:#953DA2;}
	.st111{opacity:0.73;fill:url(#SVGID_86_);}
	.st112{fill-rule:evenodd;clip-rule:evenodd;fill:url(#SVGID_87_);}
	.st113{fill-rule:evenodd;clip-rule:evenodd;fill:url(#SVGID_88_);}
	.st114{fill-rule:evenodd;clip-rule:evenodd;fill:url(#SVGID_89_);}
	.st115{opacity:0.5;fill-rule:evenodd;clip-rule:evenodd;fill:#601734;}
	.st116{fill-rule:evenodd;clip-rule:evenodd;fill:#B3D9FF;}
	.st117{fill:#FF1D9C;}
	.st118{fill:#6877FF;}
	.st119{fill:#4F31E0;}
	.st120{fill-rule:evenodd;clip-rule:evenodd;fill:url(#SVGID_90_);}
	.st121{fill-rule:evenodd;clip-rule:evenodd;fill:url(#SVGID_91_);}
	.st122{fill-rule:evenodd;clip-rule:evenodd;fill:url(#SVGID_92_);}
	.st123{fill-rule:evenodd;clip-rule:evenodd;fill:url(#SVGID_93_);}
	.st124{fill:none;}
</style>
<g>
	<path class="st0" d="M269.2,299.5c0-0.3,0.2-0.5,0.5-0.5l9.4,0.3c0.9,0,1.7,0.2,2.4,0.4c0.6,0.2,1.2,0.6,1.6,1
		c0.4,0.4,0.7,0.9,0.8,1.5c0.2,0.6,0.2,1.2,0.2,1.9l-0.1,2.4c0,0.7-0.1,1.3-0.3,1.9c-0.2,0.6-0.5,1-0.9,1.4c-0.4,0.4-1,0.7-1.6,0.9
		c-0.7,0.2-1.5,0.3-2.4,0.3l-5-0.1l-1-2.7l-0.1,0l-0.1,2.7l-3.5-0.1L269.2,299.5z M272.5,307.6l6,0.2c0.7,0,1.2-0.1,1.5-0.4
		c0.3-0.3,0.5-0.7,0.5-1.4l0.1-1.9c0-0.7-0.1-1.2-0.4-1.5c-0.3-0.3-0.8-0.4-1.4-0.4L273,302c-0.1,0-0.1,0-0.2,0.1
		c0,0-0.1,0.1-0.1,0.2L272.5,307.6z"/>
	<path class="st0" d="M289.2,304.4l-0.1,0l-0.1,3.4c0,0.1,0.1,0.2,0.2,0.2l10.5,0.3l-0.1,3l-13.8-0.4c-0.3,0-0.5-0.2-0.5-0.5
		l0.3-10.6c0-0.3,0.2-0.5,0.5-0.5l13.4,0.4c0.3,0,0.5,0.2,0.5,0.5l-0.1,3l-3.3,1l-0.1,0l0.1-1.5c0-0.1-0.1-0.2-0.2-0.2l-7.1-0.2
		c-0.1,0-0.2,0-0.2,0.1c0,0,0,0.1,0,0.1l0,1.4l5.8,0.2l-0.1,2.3l-4.9-0.1L289.2,304.4z"/>
	<path class="st0" d="M312.6,304.2l-0.1,0l0-1.3c0-0.1-0.1-0.2-0.2-0.2l-6.6-0.2c-0.2,0-0.4,0-0.5,0.1c-0.1,0.1-0.1,0.2-0.2,0.4
		l0,0.3c0,0.2,0,0.4,0.1,0.4c0.1,0.1,0.2,0.1,0.5,0.2l7.7,1.2c0.5,0.1,0.9,0.2,1.2,0.3c0.3,0.1,0.6,0.3,0.8,0.5
		c0.2,0.2,0.4,0.5,0.4,0.8c0.1,0.3,0.1,0.7,0.1,1.1l0,0.9c0,0.5-0.1,0.9-0.2,1.3c-0.1,0.4-0.4,0.7-0.6,0.9c-0.3,0.2-0.7,0.4-1.2,0.5
		c-0.5,0.1-1.1,0.2-1.7,0.1l-11.1-0.3l0.1-3l10,0.3c0.3,0,0.5,0,0.6-0.1c0.1-0.1,0.2-0.3,0.2-0.5l0-0.3c0-0.2,0-0.3-0.1-0.4
		c-0.1-0.1-0.2-0.1-0.4-0.2l-7.5-1.1c-0.5-0.1-0.9-0.2-1.3-0.3c-0.4-0.1-0.6-0.3-0.9-0.5c-0.2-0.2-0.4-0.5-0.5-0.8
		c-0.1-0.3-0.1-0.7-0.1-1.1l0-0.8c0-0.8,0.3-1.5,0.8-1.9c0.5-0.4,1.3-0.7,2.4-0.6l11.1,0.3c0.4,0,0.5,0.2,0.5,0.5l-0.1,2.4
		L312.6,304.2z"/>
	<path class="st0" d="M317.3,311.9l0.4-11.5l3.5,0.1l-0.4,11.5L317.3,311.9z"/>
	<path class="st0" d="M334,307.4c0-0.2,0-0.3,0-0.5c0-0.2,0-0.3,0-0.5l0-0.1l3.5,0.1l-0.2,5.6c0,0.3-0.2,0.4-0.4,0.4l-9.4-0.3
		c-0.9,0-1.7-0.2-2.4-0.4c-0.6-0.2-1.2-0.6-1.5-1c-0.4-0.4-0.7-0.9-0.8-1.5c-0.2-0.6-0.2-1.2-0.2-1.9l0.1-2.4c0-0.7,0.1-1.3,0.3-1.9
		c0.2-0.6,0.5-1,0.9-1.4c0.4-0.4,1-0.7,1.6-0.9c0.7-0.2,1.5-0.3,2.4-0.3l9.4,0.3c0.3,0,0.5,0.2,0.5,0.5l-0.1,2.5l-3.3,1l-0.1,0
		l0-1.1c0-0.1,0-0.2-0.1-0.2l-6-0.2c-0.3,0-0.6,0-0.9,0.1c-0.2,0.1-0.4,0.1-0.6,0.3c-0.2,0.1-0.3,0.3-0.3,0.6
		c-0.1,0.2-0.1,0.5-0.1,0.9l-0.1,2c0,0.7,0.1,1.2,0.4,1.5c0.3,0.3,0.8,0.4,1.4,0.5l5.9,0.2c0.1,0,0.2-0.1,0.2-0.2L334,307.4z"/>
	<path class="st0" d="M344.9,301.1c0.3,0,0.4,0,0.6,0.1c0.1,0.1,0.2,0.2,0.3,0.4l4.5,8.4c0.1,0.1,0.2,0.2,0.3,0.2l0.2,0
		c0.2,0,0.3-0.1,0.3-0.2l0.3-8.7l3.2,0.1l-0.4,11.1c0,0.3-0.2,0.5-0.5,0.4l-5.1-0.1c-0.2,0-0.4,0-0.5-0.1c-0.1-0.1-0.2-0.2-0.3-0.4
		l-4.6-8.4c-0.1-0.1-0.2-0.2-0.3-0.2l-0.2,0c-0.2,0-0.3,0.1-0.3,0.2l-0.3,8.7l-3.2-0.1l0.4-11c0-0.3,0.2-0.5,0.5-0.5L344.9,301.1z"
		/>
</g>
<path class="st1" d="M438.2,99.2c-119.7,0-216.8,101.1-216.8,225.7c0,124.7,105.6,225.5,225.4,225.5c14.9,0,29.2-1.6,43-4.5
	c14.3-4,28-9.4,42-14.1C606.1,497,655,417.5,655,324.9C655,200.2,557.9,99.2,438.2,99.2z"/>
<g>
	
		<linearGradient id="SVGID_1_" gradientUnits="userSpaceOnUse" x1="274.3466" y1="376.3087" x2="274.3466" y2="282.9263" gradientTransform="matrix(0.906 -0.4233 0.4233 0.906 -112.9246 137.2178)">
		<stop  offset="0" style="stop-color:#DBCCFF"/>
		<stop  offset="1" style="stop-color:#D1BBFF"/>
	</linearGradient>
	<path class="st2" d="M278.9,286c-5.3-8.4-14.8-11.9-14.8-11.9l-3.3,1.4l7.4,12.4c-1,4.8-4.5,7.4-4.5,7.4l0,0c0,0-4.4,0.8-9-1.5
		l-5.6-13.2l-3.3,1.4c0,0-3.2,8.9,0.5,18.1c0,0,1.4,3,1.6,3.2c1.3,1.4,4.7,3,11.3,2.6l22.7,39.8c-1.9,3-2.2,6.7-0.5,10.1
		c2.8,5.5,9.8,7.8,15.8,5.3c5.9-2.6,8.5-9,5.7-14.5c-1.7-3.4-5-5.5-8.7-6.1l-18.6-41.5c4.4-4.3,5.4-7.7,5-9.6
		C280.5,288.8,278.9,286,278.9,286z M297.5,354.6l-6,2.6l-5.4-3.5l0.6-6.1l6-2.6l5.4,3.5L297.5,354.6z"/>
	
		<linearGradient id="SVGID_2_" gradientUnits="userSpaceOnUse" x1="274.3905" y1="379.9395" x2="274.3905" y2="286.5572" gradientTransform="matrix(0.906 -0.4233 0.4233 0.906 -112.9246 137.2178)">
		<stop  offset="0" style="stop-color:#B5A6E7"/>
		<stop  offset="1" style="stop-color:#7760BF"/>
	</linearGradient>
	<path class="st3" d="M280.5,289.2c-5.3-8.4-14.8-11.9-14.8-11.9l-3.3,1.4l7.4,12.4c-1,4.8-4.5,7.4-4.5,7.4l0,0c0,0-4.4,0.8-9-1.5
		l-5.6-13.2l-3.3,1.4c0,0-3.2,8.9,0.5,18.1c0,0,5.1,6.3,12.9,5.9l22.7,39.8c-1.9,3-2.2,6.7-0.5,10.1c2.8,5.5,9.8,7.8,15.8,5.3
		c5.9-2.6,8.5-9,5.7-14.5c-1.7-3.4-5-5.5-8.7-6.1l-18.6-41.5C282.5,296.9,280.5,289.2,280.5,289.2z M299.2,357.8l-6,2.6l-5.4-3.5
		l0.6-6.1l6-2.6l5.4,3.5L299.2,357.8z"/>
	<polygon class="st4" points="245.8,281.9 247.5,285.1 250.7,283.7 249.1,280.5 	"/>
	<polygon class="st4" points="260.8,275.5 262.5,278.7 265.8,277.3 264.1,274 	"/>
	<polygon class="st4" points="291.5,357.2 293.2,360.4 299.2,357.8 297.5,354.6 	"/>
	<g>
		
			<linearGradient id="SVGID_3_" gradientUnits="userSpaceOnUse" x1="274.8828" y1="356.7919" x2="274.8828" y2="317.5648" gradientTransform="matrix(0.906 -0.4233 0.4233 0.906 -112.9246 137.2178)">
			<stop  offset="0" style="stop-color:#B5A6E7"/>
			<stop  offset="1" style="stop-color:#7760BF"/>
		</linearGradient>
		<path class="st5" d="M265.7,312l18.3,32.4c4.8,0.2,7.4-3.2,7.4-3.2l-14.9-33.8C269.8,307.2,265.7,312,265.7,312z M290,341.5
			c-0.5,0.4-1.3,1-2.4,1.4c-0.8,0.3-1.7,0.6-2.5,0.7l-18.3-31.7c0.9-0.7,2.4-1.8,4.4-2.7c1.5-0.6,3-1,4.5-1.2L290,341.5z"/>
		<path class="st4" d="M290,341.5l1.4-0.3c0,0-2.1,3.4-7.4,3.2l1.1-0.8C285.1,343.6,287.7,343.4,290,341.5z"/>
		
			<linearGradient id="SVGID_4_" gradientUnits="userSpaceOnUse" x1="269.0128" y1="318.3983" x2="280.7529" y2="318.3983" gradientTransform="matrix(0.906 -0.4233 0.4233 0.906 -112.9246 137.2178)">
			<stop  offset="0" style="stop-color:#8B8BE0"/>
			<stop  offset="1" style="stop-color:#A177B7"/>
		</linearGradient>
		<path class="st6" d="M265.7,312l1.1-0.1c0,0,3.1-3,8.9-3.9l0.8-0.6c0,0-2.3-0.4-6,1.2C266.9,310.2,265.7,312,265.7,312z"/>
	</g>
	
		<linearGradient id="SVGID_5_" gradientUnits="userSpaceOnUse" x1="274.7324" y1="320.677" x2="274.7324" y2="313.9214" gradientTransform="matrix(0.906 -0.4233 0.4233 0.906 -112.9246 137.2178)">
		<stop  offset="0" style="stop-color:#FFFFFF"/>
		<stop  offset="1" style="stop-color:#A177B7"/>
	</linearGradient>
	<path class="st7" d="M260.8,309.1c0,0,8.8-1.4,16.3-7l2.4,5.3c0,0-2.7-2.5-8.6-0.2c-6.9,2.6-6.5,7.7-6.5,7.7L260.8,309.1z"/>
	
		<linearGradient id="SVGID_6_" gradientUnits="userSpaceOnUse" x1="281.7938" y1="360.9182" x2="281.7938" y2="317.733" gradientTransform="matrix(0.906 -0.4233 0.4233 0.906 -112.9246 137.2178)">
		<stop  offset="0" style="stop-color:#000000"/>
		<stop  offset="1" style="stop-color:#FFFFFF"/>
	</linearGradient>
	<path class="st8" d="M279.5,307.4c-1.7-1.1-3.6-1.2-3.6-1.2l17.7,39.4l2.1-2L279.5,307.4z"/>
	<path class="st9" d="M279.5,307.4c0,0-1.9,5.3,3.5,7.8L279.5,307.4z"/>
</g>
<g>
	<g>
		<linearGradient id="SVGID_7_" gradientUnits="userSpaceOnUse" x1="451.2977" y1="562" x2="451.2977" y2="447.1421">
			<stop  offset="0" style="stop-color:#6456C0"/>
			<stop  offset="1" style="stop-color:#5F2C95"/>
		</linearGradient>
		<path class="st10" d="M512.5,457.4L512.5,457.4c0.3-0.4,1.2-1.8,1.2-3.9c0-1.5-3.3-3.7-5.8-5h0c-1.4-0.8-2.6-1.3-2.6-1.3l-112,0.6
			c0,0-1.9,1.4-3.6,2.7c-1.1,0.9-2.1,1.9-2.2,2.4c-0.3,1.2,0.7,2.9,0.8,3.1l0,0c0,0-19.4,37.2-25,77.8c1.1,0.3,2,0.9,2.7,1.7
			c7.5,2.5,14.8,5.4,22.3,8c0.6,0.2,1.1,0.5,1.5,0.8c1.4,0,2.6,0.4,3.6,1c0.1,0,0.3,0,0.4,0c0.1,0,0.2,0,0.4,0c0.2,0,0.5,0,0.7,0
			c1.5,0,2.8,0.4,3.8,1c1.3,0.1,2.4,0.5,3.3,1c4,0.8,8,1.7,12,2.4c2.7,0.4,5.4,0.7,8.1,1.1c1.1,0.1,2.2,0.2,3.3,0.3l20.7-69.4
			c0,0,7.6-2.6,11.5-0.5c0,0,12.4,35.4,20,67.8c21.4-4.4,41.1-13.1,61.8-19.6C534,507.8,525.3,479.6,512.5,457.4z"/>
		
			<radialGradient id="SVGID_8_" cx="414.3545" cy="479.1583" r="27.0277" gradientTransform="matrix(0.9036 0.192 -0.4667 1.8624 244.3519 -459.0038)" gradientUnits="userSpaceOnUse">
			<stop  offset="0" style="stop-color:#4B474B"/>
			<stop  offset="1" style="stop-color:#000000"/>
		</radialGradient>
		<path class="st11" d="M407.8,462.6c-13.5-2.9-30.1,17.3-37,45.1c-2.5,10.1-3.4,19.9-2.9,28.3c6.8,2.4,13.6,5,20.4,7.4
			c0.6,0.2,1.1,0.5,1.5,0.8c1.4,0,2.6,0.4,3.6,1c0.1,0,0.3,0,0.4,0c0.1,0,0.2,0,0.4,0c0.2,0,0.5,0,0.7,0c1.5,0,2.8,0.4,3.8,1
			c1.3,0.1,2.4,0.5,3.3,1c1.5,0.3,3.1,0.6,4.6,1c5.4-7.9,10.1-18.2,13-30C426.5,490.3,421.3,465.5,407.8,462.6z"/>
		
			<radialGradient id="SVGID_9_" cx="549.307" cy="468.0303" r="27.0271" gradientTransform="matrix(0.893 -0.2305 0.5572 1.8311 -244.1824 -218.2337)" gradientUnits="userSpaceOnUse">
			<stop  offset="0" style="stop-color:#4B474B"/>
			<stop  offset="1" style="stop-color:#000000"/>
		</radialGradient>
		<path class="st12" d="M495.1,544.3c13.6-4.2,26.9-9.4,40.4-13.8c-0.2-7.5-1.6-15.9-4.2-24.6c-8.3-27.3-25.9-46.7-39.2-43.3
			c-13.3,3.4-17.4,28.4-9.1,55.7C486,528.4,490.3,537.2,495.1,544.3z"/>
		<g>
			<linearGradient id="SVGID_10_" gradientUnits="userSpaceOnUse" x1="413.579" y1="515.6122" x2="446.2965" y2="515.6122">
				<stop  offset="0" style="stop-color:#9E8CEF"/>
				<stop  offset="1" style="stop-color:#CAAFEE"/>
			</linearGradient>
			<path class="st13" d="M445.8,481.3l-4.9,4l-0.1,0.1c-0.2,0.3-15.9,28.6-24.6,64.5c0.2,0,0.5,0.1,0.7,0.1
				c8.5-35.1,23.7-62.8,24.5-64.2l4.9-3.9L445.8,481.3z"/>
		</g>
		<g>
			
				<linearGradient id="SVGID_11_" gradientUnits="userSpaceOnUse" x1="495.5953" y1="514.111" x2="528.3154" y2="514.111" gradientTransform="matrix(-1 0 0 1 985.6286 0)">
				<stop  offset="0" style="stop-color:#9E8CEF"/>
				<stop  offset="1" style="stop-color:#CAAFEE"/>
			</linearGradient>
			<path class="st14" d="M486.6,546.7c-8.9-34.5-24.2-61.4-24.4-61.7l-4.5-3.7l-0.5,0.5l4.4,3.6c0.8,1.3,15.5,27.8,24.3,61.5
				C486.2,546.9,486.4,546.8,486.6,546.7z"/>
		</g>
		<linearGradient id="SVGID_12_" gradientUnits="userSpaceOnUse" x1="449.5621" y1="562" x2="449.5621" y2="447.1421">
			<stop  offset="0" style="stop-color:#CCCCFF"/>
			<stop  offset="1" style="stop-color:#755CBB"/>
		</linearGradient>
		<path class="st15" d="M477.3,464l30.6-15.5c-1.4-0.8-2.6-1.3-2.6-1.3l-112,0.6c0,0-1.9,1.4-3.6,2.7l42.7,23.9
			c-1-0.4-34.5-12.4-44.9-21.5l-2.1,1.4l2.9,1.6l0,0c0,0,24,13.8,40.2,31.1c0,0-12.4,31.2-19.3,61.5c1.5,0.3,3,0.6,4.4,0.8
			c2.8,0.4,5.5,0.8,8.3,1.2c1.2,0.1,2.3,0.2,3.5,0.3l20.7-69.4c0,0,7.6-2.6,11.5-0.5c0,0,12.4,35.4,20,67.8c7-1.4,13.9-3.3,20.7-5.5
			c-7.3-18.8-18.8-46.9-26.8-61.1c0,0,17.7-20,41.1-24.9l0.1-0.1c0.2-0.3,1.1-1.7,1.1-3.8L477.3,464z"/>
		<linearGradient id="SVGID_13_" gradientUnits="userSpaceOnUse" x1="464.0845" y1="504.5711" x2="464.0845" y2="473.2439">
			<stop  offset="0" style="stop-color:#CCCCFF"/>
			<stop  offset="1" style="stop-color:#755CBB"/>
		</linearGradient>
		<polygon class="st16" points="457.5,481.1 470.6,473.2 467.5,481.1 465.2,504.6 		"/>
		<linearGradient id="SVGID_14_" gradientUnits="userSpaceOnUse" x1="424.6762" y1="493.0513" x2="424.6762" y2="462.3592">
			<stop  offset="0" style="stop-color:#CCCCFF"/>
			<stop  offset="1" style="stop-color:#755CBB"/>
		</linearGradient>
		<polygon class="st17" points="446.1,481.5 432.4,474.5 403.3,462.4 440.4,485 442.6,493.1 		"/>
	</g>
	<path class="st18" d="M483.5,239.7c0.1,0.6,0.2,0.8,0.2,0.8c-0.7,2.6-1.5,5.1-2.3,7.3c-2.7,7.2-6.2,12.4-8.7,15.6
		c-2.2,2.8-3.8,4.1-3.8,4.1c-20.4-5.9-30.5-24.3-34.3-33.4c0,0,0-0.1-0.1-0.1c-0.7-1.7-1.2-3.1-1.5-4c0,0,0,0,0,0
		c-0.2-0.7-0.3-1.1-0.3-1.1c0.1-0.2,0.2-0.3,0.3-0.5l0-0.1c0.3-0.6,0.7-1.3,1-1.9c2.7-5.4,4.4-10.4,5.6-14.4c1-3.4,1.5-6,1.8-7.4
		c0.1-0.7,0.2-1.1,0.2-1.1l9.5,4.6l32.8,16c-0.5,2.8-0.7,5.4-0.7,7.6c0,1.6,0,3.1,0.1,4.3c0.1,1.5,0.3,2.7,0.4,3.5v0
		C483.5,239.6,483.5,239.6,483.5,239.7z"/>
	<linearGradient id="SVGID_15_" gradientUnits="userSpaceOnUse" x1="458.4864" y1="274.1794" x2="458.4864" y2="228.3315">
		<stop  offset="0" style="stop-color:#D5CDF8"/>
		<stop  offset="1" style="stop-color:#F3EDFB"/>
	</linearGradient>
	<path class="st19" d="M474.5,269.5c-1.9,1.7-4.1,3.3-6.8,4.6c-0.1,0-0.1,0.1-0.2,0.1c0,0-0.1,0-0.2-0.1l0,0c-0.7-0.4-3.1-1.8-6.4-4
		c-8.6-5.9-22.8-17.9-26.9-34.1c0,0,0,0,0-0.1c-0.5-1.9-0.8-3.9-1-5.9c0,0,0,0,0,0c0-0.5-0.1-1.1-0.1-1.6c0,0,2.8,6.1,7.8,12.8
		c5.8,7.8,14.5,16.3,24.8,16.4c9,0.1,13.6-5.6,15.9-10.8c1-2.2,1.6-4.3,1.9-5.9c0,0,0,0,0,0c0.1-0.5,0.2-0.9,0.2-1.2v0
		c0-0.2,0.1-0.3,0.1-0.5c0.1-0.6,0.1-0.9,0.1-0.9S487.1,257.9,474.5,269.5z"/>
	<linearGradient id="SVGID_16_" gradientUnits="userSpaceOnUse" x1="432.852" y1="251.2104" x2="484.1208" y2="251.2104">
		<stop  offset="0" style="stop-color:#CCCCFF"/>
		<stop  offset="1" style="stop-color:#755CBB"/>
	</linearGradient>
	<path class="st20" d="M474.5,269.5c-1.9,1.7-4.1,3.3-6.8,4.6h-0.2l-0.2,0l0,0c-0.7-0.4-3.1-1.8-6.4-4c-8.6-5.9-22.8-17.9-26.9-34.1
		c0,0,0,0,0-0.1c-0.5-1.9-0.8-3.9-1-5.9c0,0,0,0,0,0c0-0.5-0.1-1.1-0.1-1.6c0,0,2.8,6.1,7.8,12.8c0,0,5.6,14.3,17.9,21.4
		c6.1,3.5,10.8,3,14.2,0.9c3.4-2.1,5.6-5.7,6.9-8.4c1.3-2.7,1.7-5.3,1.8-7.2c0-0.4,0-0.8,0-1.2c1-2.2,1.6-4.3,1.9-5.9c0,0,0,0,0,0
		c0.1-0.5,0.2-0.9,0.2-1.2v0c0-0.2,0.1-0.3,0.1-0.5c0.1-0.6,0.1-0.9,0.1-0.9S487.1,257.9,474.5,269.5z"/>
	<linearGradient id="SVGID_17_" gradientUnits="userSpaceOnUse" x1="443.8264" y1="457.3639" x2="443.8264" y2="226.3359">
		<stop  offset="0" style="stop-color:#9E8CEF"/>
		<stop  offset="1" style="stop-color:#CAAFEE"/>
	</linearGradient>
	<path class="st21" d="M553,386.3c-0.2,0.1-0.2,0.1-0.2,0.1c-1.1,0.1-4.7-0.6-9.4-4.3l0,0c0,0,0,0,0,0c0,0,0,0-0.1-0.1
		c-3.9-3.2-8.6-8.4-13.3-17c-9.4-17.2-12.1-28.7-12.5-30.8l-0.1-0.3l-5.5,8c-3.7,10.3-10.7,52.7-10.6,54.6
		c0.1,1.8,6.2,10.7,6.1,11.8c0,0,0,0,0,0c-0.2,1.1-2.9,3.5-3.7,6.2c-0.5,1.8,3.2,7.3,5.8,11.5v0c1.4,2.2,2.4,3.9,2.4,4.6
		c0,1.9-6.6,11.5-6.6,11.5v5.1l-0.1,0.1l-0.3,0.3l-0.3,0.2c-2.5,1.8-13.2,7.8-46.5,9.5c-39.5,1.9-65.8-9.8-65.8-9.8l2-5
		c0,0-1.8-1.5-2-2.2c-0.1-0.7,1.5-2.4,1.5-2.4s-4-1.9-4-4.4c0-2.4,8-10,7.7-16.5c-0.3-6.5-6.4-12.2-7.2-15.8
		c-0.8-3.7,10.3-12.7,10.3-12.7c-9.5-27.8-11.4-65.1-11.4-65.1l-1.8-2c0,0-11.4,23.9-21.7,35.6c-1.2,1.4-2.5,2.8-3.9,4.1
		c-2.9,2.9-5.9,5.6-8.9,7.9c-7.2,5.7-13.7,9.5-15.3,9.2c-2.7-0.5-13.3-19.8-12.8-39.5c0.2-9.4,6.4-19.9,12.8-28.4
		c0.7-0.9,1.4-1.8,2.1-2.7c4.5-5.7,8.9-10.1,11-12.2c0.8-0.8,1.3-1.2,1.3-1.2s-1.5-4.3-2.4-8.1c0-0.1,0-0.2-0.1-0.3c0,0,0-0.1,0-0.1
		c0-0.1,0-0.1,0-0.1c-0.6-2.3-1-4.3-0.6-4.8c0.9-1.3,6-2.8,6.9-3.7c0.9-1,4.6-17.4,7.4-19.2c2.7-1.7,7.5-3,23.4-8.7
		c0.8-0.3,1.6-0.6,2.4-0.9c17.8-6.5,35.3-14.4,35.3-14.4l6.7-7.6h3l-1,1.9l0,0.1c0.5,2,1,3.8,1.6,5.6c0,0.1,0,0.1,0.1,0.1
		c9.2,26.8,33,35.4,33,35.4c16.5-11.2,16.2-29,16.2-29v-2.4l3.1,0.8l2.1,4.6c0,0,3.6,5.1,17.8,10.9c2.4,1,5.1,2.2,7.8,3.7
		c13,6.8,27.4,17.3,28.5,19.5c0.1,0.2,0.2,0.6,0.4,1.1v0c1.5,5.5,4.7,26.1,7.6,33.5c1.8,4.6,4.7,7.1,6.8,8.4c0,0,0,0,0,0
		c1.6,1,2.7,1.3,2.7,1.3c0.2,1.1,0.4,2.3,0.6,3.4C567.1,360.7,555.6,384.6,553,386.3z"/>
	<linearGradient id="SVGID_18_" gradientUnits="userSpaceOnUse" x1="339.695" y1="313.4031" x2="400.8022" y2="313.4031">
		<stop  offset="0" style="stop-color:#CCCCFF"/>
		<stop  offset="1" style="stop-color:#755CBB"/>
	</linearGradient>
	<path class="st22" d="M400.8,319.7l-11.5,3.6l-1.8-2c0,0-11.4,23.9-21.7,35.6c-1.2,1.4-2.5,2.8-3.9,4.1c-2.9,2.9-5.9,5.6-8.9,7.9
		l-8.8-34.9l-4.5-26.5c4.5-5.7,8.9-10.1,11-12.2c0.8-0.8,1.3-1.2,1.3-1.2s-1.5-4.3-2.4-8.1c0-0.1,0-0.2-0.1-0.3c0,0,0-0.1,0-0.1
		c0-0.1,0-0.1,0-0.1c-0.6-2.3-1-4.3-0.6-4.8c0.9-1.3,6-2.8,6.9-3.7c0.9-1,4.6-17.4,7.4-19.2c0,0-1.8,15.8,8,35.8l4.8,6.2l14,10.3
		C389.7,310.2,395,316.7,400.8,319.7z"/>
	<linearGradient id="SVGID_19_" gradientUnits="userSpaceOnUse" x1="337.805" y1="378.1064" x2="337.805" y2="270.0722">
		<stop  offset="0" style="stop-color:#9E8CEF"/>
		<stop  offset="1" style="stop-color:#DAC7F3"/>
	</linearGradient>
	<path class="st23" d="M367.5,348.2c-2.5,16.9-29.8,29.9-29.8,29.9c-6.1,0-12.9-9.8-19.1-21.8c-6.2-12-6.6-46.6-6.9-48.8
		c-0.3-2.1-3.8-6.4-4-8.2c-0.2-1.8,5.6-5.6,5.6-5.6l0-0.1l0-0.1c-0.6-1.2-4-7.9-3.7-9.1c0.3-1.3,6.7-4.3,6.7-4.3l0.4,6.6
		c0,0,15.1-2.6,20.2-13.4l0.9-3.3l2.5,1.5v14.1c0,0,0.5,2.2,1.3,2.2c0.8,0,6.7-2.7,7.9-2.3c1.2,0.4,2.5,7.9,4.1,8.9
		c1.6,1,6,3.8,6.7,5.1c0.3,0.6,0.3,2.8,0.3,5.3c0,3.1,0.1,6.8,0.6,8.9C362,317.7,369.9,331.3,367.5,348.2z"/>
	<linearGradient id="SVGID_20_" gradientUnits="userSpaceOnUse" x1="539.573" y1="346.9696" x2="618.3067" y2="346.9696">
		<stop  offset="0" style="stop-color:#A999F1"/>
		<stop  offset="1" style="stop-color:#DAC7F3"/>
	</linearGradient>
	<path class="st24" d="M617.8,333.7c-1.2,1.8-7.4,5.5-9,7c-1.6,1.5,0,6.3,0,6.3c-26,25.4-53,38.1-55.8,39.3
		c-0.2,0.1-0.2,0.1-0.2,0.1c-16.3-10.1-14.9-26.7-9.5-40.7c5.2-13.4,14-24.5,14.4-25l0,0c0,0,0,0,0,0c0.3-0.1,5-1.9,8.3-2.1
		c1.1-0.1,2.1,0.3,3.1,0.9c2,1.1,3.7,2.9,5.3,2.2c2.4-1.1,7.7-12.7,11.4-13.1c2.5-0.2,6,2.2,8.4,3.5c1,0.6,1.8,1,2.2,0.9
		c1.3-0.3,5.8-5.3,6.2-5.4c0.3-0.1,2.4,1.2,2.4,1.2l-1.4,1.6c2.2,11.7,9.5,19.6,9.5,19.6l4.9-6.5C617.8,323.5,619,331.9,617.8,333.7
		z"/>
	<path class="st25" d="M483.6,239.2c0,0.2-0.1,0.3-0.1,0.5c-0.1,0.3-0.2,0.7-0.3,1c0,0,0,0,0,0c-1.7,5.7-8.4,11.5-16.9,8.7
		c-9.3-3.1-26.9-37.5-26.9-37.5l1.8-7.4l41.9,31.4l0.5,3L483.6,239.2z"/>
	<g>
		<path class="st26" d="M344.2,232.9c0,0-2.6-13-1.4-22.6c1.1-9.6-0.3-20.5-0.3-20.5s-2.5-1-4.4,0c-1.9,1-6.2,10.9-4.2,18.9
			c1.9,8,0.4,27.1,0.4,27.1h-2.9l-6.4-8.1l-3.1-0.8c0,0-17.8,15.4-17.5,24.6l2.3,8.2l21.9-0.7l14.3-15L344.2,232.9z"/>
		<linearGradient id="SVGID_21_" gradientUnits="userSpaceOnUse" x1="312.1941" y1="255.3413" x2="312.1941" y2="226.856">
			<stop  offset="1.598750e-02" style="stop-color:#FFC2A9"/>
			<stop  offset="1" style="stop-color:#FF9595"/>
		</linearGradient>
		<path class="st27" d="M321.9,226.9c0,0,0.5,10.2,3,19c0,0-0.4,3.6-5,3.8l-1.1-1.2c0,0-0.8,4.1-4.8,4.4l-3.8-3.5l1,2.9
			c0,0-1.4,3.1-5,3c0,0-6.1-4.4-6.5-10.1l6-4.7v-3.6l7.2-4.6l0.1-2.6C312.8,229.7,317,226.8,321.9,226.9z"/>
		<linearGradient id="SVGID_22_" gradientUnits="userSpaceOnUse" x1="331.6756" y1="254.6669" x2="331.6756" y2="207.5146">
			<stop  offset="0" style="stop-color:#FFEADB"/>
			<stop  offset="0.9944" style="stop-color:#C27CB6"/>
		</linearGradient>
		<path class="st28" d="M343,207.5c0,0-1.1,2.5-2.6,3.5c-1.5,1-5.9,1.7-5.9,1.7l-0.2,23h-2.9l-6.4-8.1c0,0,3.2,4.6,3.4,8.1l-2.5,1.1
			l-2.2-6.9l-1,5l1,6.2c0,0,3.8-3,10.6-3.1l1,1.7c0,0-12.3,9.4-15.2,15c0,0,6.1-7.1,20-15l1.3-3.8l1.8-9
			C343.2,226.9,341.6,213.8,343,207.5z"/>
		<linearGradient id="SVGID_23_" gradientUnits="userSpaceOnUse" x1="330.0141" y1="286.7454" x2="330.0141" y2="214.0531">
			<stop  offset="1.598750e-02" style="stop-color:#FFC2A9"/>
			<stop  offset="1" style="stop-color:#FF9595"/>
		</linearGradient>
		<path class="st29" d="M353.3,247.6c-1.1,3.2-13.2,16.3-14.5,19.2c-1.3,2.8-2.1,6.6-2.1,6.6c-5.9,11.8-20.2,13.4-20.2,13.4
			l-0.7-10.6c0,0-7.7-4.1-9-6.3l0,0l-0.2-0.4c-0.4-2.1-0.1-9.8-0.1-9.8l13.4-5c5.8-7,20-15,20-15l0.7-3.6
			c-10.2-4.6-8.5-18.6-6.8-20.3c1.7-1.7,4.9-1.7,4.9-1.7s3.7,11.2,6.1,16.5C347.4,235.8,354.5,244.4,353.3,247.6z"/>
		<path class="st30" d="M312.8,229.7c0,0,1.5,12.8,5.9,18.9c0,0-5.6-6.4-6-16.3L312.8,229.7z"/>
		<path class="st30" d="M305.6,236.9c0,0,1.5,10.3,8.3,16c0,0-6.1-2.8-8.3-12.4V236.9z"/>
		<linearGradient id="SVGID_24_" gradientUnits="userSpaceOnUse" x1="315.8954" y1="275.4016" x2="340.7186" y2="275.4016">
			<stop  offset="1.598750e-02" style="stop-color:#D1A1D6"/>
			<stop  offset="0.9944" style="stop-color:#BD89C4"/>
		</linearGradient>
		<path class="st31" d="M340.7,264.1c0,0-15.2,13.5-24.8,12.1l0.7,10.6c0,0,15.9-1.3,21.1-16.7C337.6,270.1,339.5,265.6,340.7,264.1
			z"/>
	</g>
	<g>
		<linearGradient id="SVGID_25_" gradientUnits="userSpaceOnUse" x1="619.9296" y1="331.0225" x2="619.9296" y2="233.8146">
			<stop  offset="1.598750e-02" style="stop-color:#FFC2A9"/>
			<stop  offset="1" style="stop-color:#FF9595"/>
		</linearGradient>
		<path class="st32" d="M661,282.5c0,0-13.9,23.4-30.2,30.6h-5.6L612.4,331c0,0-8.3-4.8-8.9-20.6c0,0,2.9-2.8,3.6-5.9
			c0,0-4.6-3.3-5.8-5.8c-1.2-2.4-1.7-9.8-2.6-12.8c-0.9-3-8.4-9.3-10.1-10.1c-1.7-0.8-9.3-1.2-9.3-1.2s-1.1-2.5,0-3.7
			c1.1-1.2,12.9-5.5,19.3-1.4c0,0,0.4,3.1,1.1,4.7c0.7,1.6,6.4,7.4,7.2,7.4c0.9,0,4.7-2.9,6.4-5.2c1.6-2.2,10.2-19.1,12.2-24.9
			c0-0.1,0-0.1,0.1-0.2c0-0.1,0.1-0.2,0.1-0.3c0-0.1,0-0.1,0.1-0.2c0,0,0,0,0-0.1c1.6-5,10.9-14.5,15.8-17.1c0,0,2.1-0.5,3.3,1.9
			c0,0-4,10.4-8.1,16.6c-0.7,1-1.5,2.3-2.2,3.6c0,0,0,0,0,0c-3.5,6-7.5,13.8-8.1,15l-0.1,0.1l2.2,1l6-5.2l6.1-5.3l14.1,13.7
			l-1.4,1.6L649,282l2.2,0.4l5.2-5.3L661,282.5z"/>
		<linearGradient id="SVGID_26_" gradientUnits="userSpaceOnUse" x1="632.4023" y1="299.8779" x2="632.4023" y2="251.5838">
			<stop  offset="0" style="stop-color:#FFEADB"/>
			<stop  offset="0.9944" style="stop-color:#C27CB6"/>
		</linearGradient>
		<path class="st33" d="M657.7,287.4l-4.4,6c0,0-24.4-17.3-29.7-18.8c-5.3-1.5-7.2-0.5-7.2-0.5l-5.5,6.4c0,0,10.1,8.2,10.9,19.3
			c0,0-3.4-14-14.8-18.2c0.9,0,4.7-2.9,6.4-5.2c1.6-2.2,10.2-19.1,12.2-24.9c-0.3,1-0.6,2.9,0.2,4.4c1.2,2,8.3,0.1,8.7,0
			c0,0,0,0,0,0l-8.1,15l-0.1,0.1l2.2,1l6-5.2l-3,6.4l21.8,3.5L649,282l2.2,0.4L657.7,287.4z"/>
		<linearGradient id="SVGID_27_" gradientUnits="userSpaceOnUse" x1="642.7499" y1="283.2089" x2="642.7499" y2="261.5595">
			<stop  offset="0" style="stop-color:#FFB0B0"/>
			<stop  offset="0.984" style="stop-color:#FFC2A9"/>
		</linearGradient>
		<path class="st34" d="M640.7,261.6c0,0,4.2-0.6,7,4.5l-0.6,1.6c0,0,4.1,0.7,8.1,6.9c0,0-3.5,5.9-12.3,8.6c0,0-4.1-1.1-4.8-4.2
			l0.8-2l-3.2,2.2c0,0-3.8,1.1-5.5-4.1L640.7,261.6z"/>
		<linearGradient id="SVGID_28_" gradientUnits="userSpaceOnUse" x1="656.3876" y1="286.5427" x2="656.3876" y2="274.6707">
			<stop  offset="0" style="stop-color:#FFB0B0"/>
			<stop  offset="0.984" style="stop-color:#FFC2A9"/>
		</linearGradient>
		<path class="st35" d="M662.3,280.9c0,0,0.9-3.7-3.4-6.2l-8.4,8.5c0,0,0.3,2.7,3.9,3.3C654.3,286.5,660.1,284.8,662.3,280.9z"/>
		<linearGradient id="SVGID_29_" gradientUnits="userSpaceOnUse" x1="601.2393" y1="310.2052" x2="625.2207" y2="310.2052">
			<stop  offset="1.598750e-02" style="stop-color:#D1A1D6"/>
			<stop  offset="0.9944" style="stop-color:#BD89C4"/>
		</linearGradient>
		<path class="st36" d="M601.2,298.7c0,0,9.7,10,24,14.3l-6.1,8.6l-12.8-15l0.8-2.2C607.1,304.5,601.9,300.9,601.2,298.7z"/>
		<path class="st30" d="M647.1,267.7c0,0-4.1,6.2-8.1,9.3l-0.8,2c0,0,7.9-4.9,10.8-10.6C648.9,268.4,648,267.8,647.1,267.7z"/>
	</g>
	<linearGradient id="SVGID_30_" gradientUnits="userSpaceOnUse" x1="567.8649" y1="386.4124" x2="567.8649" y2="277.6041">
		<stop  offset="0" style="stop-color:#CCCCFF"/>
		<stop  offset="1" style="stop-color:#755CBB"/>
	</linearGradient>
	<path class="st37" d="M617.8,333.7c-1.2,1.8-7.4,5.5-9,7c-1.6,1.5,0,6.3,0,6.3c-26,25.4-53,38.1-55.8,39.3
		c-0.2,0.1-0.2,0.1-0.2,0.1c-2.1,0.2-12.5-2.4-22.8-21.5c-9.4-17.2-12.1-28.7-12.5-30.8l-0.1-0.3l2.3-2.8l3.4-35.1l2.4,7.1
		c9-10,17.5-25.4,17.5-25.4l0.4,1.1v0c1.5,5.5,4.7,26.1,7.6,33.5c1.8,4.6,4.7,7.1,6.8,8.4l0,0l0,0c-8.3,7-12.4,17-14.4,25
		c-1.9,7.3-2,12.9-2,12.9s2.3-9.9,9.5-21.8c2.6-4.3,6.5-8.2,10.2-11.4c2.9-2.4,5.7-4.4,8-5.9c2,1.1,3.7,2.9,5.3,2.2
		c-10.9,15.1-10.6,44.9-0.4,39.2c10.2-5.7,12.6-17.8,12.6-17.8c-2.4-14.7-1.7-31.3,0.2-34.5c2.4,0.1,9.1,4.4,9.5,4.3
		c-0.6,17.3,8.2,28.9,8.2,28.9l5.8-8.3c-8.5-13.2-7.9-26-7.9-26c0.3-0.1,2.4,1.2,2.4,1.2l-1.4,1.6c2.2,11.7,9.5,19.6,9.5,19.6
		l4.9-6.5C617.8,323.5,619,331.9,617.8,333.7z"/>
	<linearGradient id="SVGID_31_" gradientUnits="userSpaceOnUse" x1="307.6732" y1="364.4906" x2="505.3276" y2="364.4906">
		<stop  offset="0" style="stop-color:#CCCCFF"/>
		<stop  offset="1" style="stop-color:#755CBB"/>
	</linearGradient>
	<path class="st38" d="M505.3,442v5.1l-0.1,0.1l-0.3,0.3l-0.3,0.2c-2.5,1.8-13.2,7.8-46.5,9.5c-39.5,1.9-65.8-9.8-65.8-9.8l2-5
		c0,0-1.8-1.5-2-2.2c-0.1-0.7,1.5-2.4,1.5-2.4s-4-1.9-4-4.4c0-2.2,6.5-8.6,7.5-14.6c0.1-0.6,0.2-1.3,0.2-1.9
		c-0.3-6.4-6.3-12.1-7.1-15.8c0,0,0-0.1,0-0.1c-0.8-3.7,10.3-12.7,10.3-12.7c-9.5-27.8-11.4-65.1-11.4-65.1l-1.8-2
		c0,0-11.4,23.9-21.7,35.6c-10.3,11.7-25.4,21.7-28.1,21.2c-6.1,0-12.9-9.8-19.1-21.8c-6.2-12-6.6-46.6-6.9-48.8
		c-0.3-2.1-3.8-6.4-4-8.2c6.6,10.5,17.2,7.4,17.2,7.4c-7.6,0.2-11.6-13-11.6-13l0-0.1l0-0.1l-3.7-9.1c0.4,0.4,9.2,9.4,17.6,3.9
		c8.7-5.7,13.1-16.7,13.1-16.7v14.1c0,0,0.5,2.2,1.3,2.2c-0.5,6.5-2,14.4-3.8,22.3c-3.9,16.9-9.3,33.2-9.3,33.2s14.6-7.3,19.7-25.9
		c2.4-8.9,2.9-16.6,2.6-22.2c-0.2-4.8-0.9-8.1-1.2-9.3c0-0.1,0-0.2-0.1-0.3c0,0,0-0.1,0-0.1c0,0,0-0.1,0-0.1l1.4,2.8l2.7,6.1
		c3.1,23.8-3.3,59.6-3.3,59.6c9.4-10.7,11.3-34.5,10.9-40.2c-0.2-2.8-0.4-6.2-0.6-8.9c-0.2-3-0.3-5.3-0.3-5.3l19.2,10.5l-3.5-10.3
		l14,10.3c0,0,12.5,13.9,25.4,15.5c12.9,1.6,60.2,0.7,60.2,0.7s-41.2,2.4-53.2,5.7s-14.3,7-14.3,7c8.7,40.7,56.7,54.4,58.2,54.8
		c-43.6-6-63.9-40.2-63.9-40.2s-0.7,19.2,2.6,26.5c3.4,7.3,23.1,25.2,48.6,28.9c2.1,0.3,4.3,0.5,6.3,0.6c21.5,0.9,39.2-9.2,41-10.2
		c0.1-0.1,0.2-0.1,0.2-0.1s0,0,0,0.1c-0.7,1-9.5,12.3-45,13.6c-2.2,0.1-4.3,0.1-6.3,0c0,0,0,0,0,0c-32.9-1.3-49.7-21.5-49.7-21.5
		s-12.2,6-4.4,15c0.1,0.1,0.2,0.2,0.3,0.3c2.3,2.4,7.3,5.4,13.3,8.5c0.2,0.1,0.3,0.2,0.5,0.3c7.2,3.7,15.7,7.5,22.2,10.6
		c0,0,0.1,0,0.1,0c4,1.9,7.3,3.6,9.1,4.8c0,0,0,0,0,0c1.8,1.2,2.2,2,0.4,2.2c-9.2,1-44-6-45.4-4.1c-1.4,2,1.7,7,1.7,7
		c31.9,14.6,100.3,7.4,102.4,7.2c-57.2,13.5-104-3.6-104-3.6l1.6,5c0,0,25.5,8.1,55.5,8.8c30,0.6,48.8-6.4,48.8-6.4L505.3,442z"/>
	<linearGradient id="SVGID_32_" gradientUnits="userSpaceOnUse" x1="481.9269" y1="334.0372" x2="519.7071" y2="334.0372">
		<stop  offset="0" style="stop-color:#CCEDFF"/>
		<stop  offset="1" style="stop-color:#755CBB"/>
	</linearGradient>
	<path class="st39" d="M481.9,326.2c0,0,22.7,1.1,37.8,4.8l-7.8,10.8C512,341.8,500.3,332.4,481.9,326.2z"/>
	<linearGradient id="SVGID_33_" gradientUnits="userSpaceOnUse" x1="447.6603" y1="395.086" x2="503.1827" y2="395.086">
		<stop  offset="0" style="stop-color:#CCEDFF"/>
		<stop  offset="1" style="stop-color:#755CBB"/>
	</linearGradient>
	<path class="st40" d="M503.2,384c0,0-14.2,10.9-28.1,15.9c-14,5-27.4,5.5-27.4,5.5s8,2.2,27.8-0.7c19.7-2.9,26.5-12.8,26.5-12.8
		L503.2,384z"/>
	<linearGradient id="SVGID_34_" gradientUnits="userSpaceOnUse" x1="450.2315" y1="418.2014" x2="509.5506" y2="418.2014">
		<stop  offset="0" style="stop-color:#CCEDFF"/>
		<stop  offset="1" style="stop-color:#755CBB"/>
	</linearGradient>
	<path class="st41" d="M509.6,425.9L509.6,425.9c-26.3,6.3-59.6-2.7-59.3-3.8c0.3-1.1,9.1,0.5,29.7-3.3
		c19.9-3.7,27.1-10.2,27.5-10.6c-0.2,1.1-2.9,3.5-3.7,6.2C503.2,416.2,506.9,421.8,509.6,425.9z"/>
	<linearGradient id="SVGID_35_" gradientUnits="userSpaceOnUse" x1="399.1801" y1="360.9698" x2="399.1801" y2="299.6719">
		<stop  offset="0" style="stop-color:#CCEDFF"/>
		<stop  offset="1" style="stop-color:#755CBB"/>
	</linearGradient>
	<path class="st42" d="M438.2,329.5c-22.4,2.1-28.5,7.9-28.5,7.9c-6.3,0.7-20.5-14.1-20.5-14.1l-1.8-2c0,0-11.4,23.9-21.7,35.6
		c-1.2,1.4-2.5,2.8-3.9,4.1l1.5-3c0,0,2.4-1.1,3.1-12.7c0.7-11.6-5.3-28.9-5.3-31.3c0-2.4-0.9-14.3-0.9-14.3l19.2,10.5l-3.5-10.3
		l14,10.3c0,0,5.5,7.6,19.3,13.9C422,330,436.6,329.6,438.2,329.5z"/>
	<linearGradient id="SVGID_36_" gradientUnits="userSpaceOnUse" x1="404.5398" y1="366.1226" x2="404.5398" y2="319.6567">
		<stop  offset="0" style="stop-color:#CCEDFF"/>
		<stop  offset="1" style="stop-color:#755CBB"/>
	</linearGradient>
	<path class="st43" d="M387.4,321.3l13.4-1.6c0,0,5.3,3.3,16.1,7.3l-8.9,12.1c0,0,3.5,17.3,13.7,27.1c0,0-27-13.8-30.8-25.4
		L387.4,321.3z"/>
	<linearGradient id="SVGID_37_" gradientUnits="userSpaceOnUse" x1="324.7818" y1="306.7239" x2="324.7818" y2="271.6172">
		<stop  offset="0" style="stop-color:#CCEDFF"/>
		<stop  offset="1" style="stop-color:#755CBB"/>
	</linearGradient>
	<path class="st44" d="M309.4,284.4l3.8,9.3c0,0,3.9,12.5,11.6,13c7.7,0.5,15.3-20.9,15.3-20.9v-14.1c0,0-8.2,16.2-17.1,18.1
		C314.2,291.5,309.4,284.4,309.4,284.4z"/>
	<linearGradient id="SVGID_38_" gradientUnits="userSpaceOnUse" x1="355.636" y1="275.8084" x2="371.0022" y2="275.8084">
		<stop  offset="0" style="stop-color:#CCEDFF"/>
		<stop  offset="1" style="stop-color:#755CBB"/>
	</linearGradient>
	<path class="st45" d="M355.6,277.1c0,0,6.9,12.7,15.4,16.6c0,0-10.1-22.5-8-35.8C363,257.9,359.3,260,355.6,277.1z"/>
	<linearGradient id="SVGID_39_" gradientUnits="userSpaceOnUse" x1="522.6771" y1="360.9698" x2="522.6771" y2="295.8995">
		<stop  offset="0" style="stop-color:#CCCCFF"/>
		<stop  offset="1" style="stop-color:#755CBB"/>
	</linearGradient>
	<path class="st46" d="M523.1,295.9l2.4,7.1l2.4,58c0,0-6.1-11-10.4-26.8l2.2-3.2C519.7,331,523.4,309.2,523.1,295.9z"/>
	<linearGradient id="SVGID_40_" gradientUnits="userSpaceOnUse" x1="602.1313" y1="346.9746" x2="602.1313" y2="312.9717">
		<stop  offset="0" style="stop-color:#CCCCFF"/>
		<stop  offset="1" style="stop-color:#755CBB"/>
	</linearGradient>
	<path class="st47" d="M596.3,313c0,0-1.3,28.5,11.8,31l0.7,3C608.7,347,591.7,346.4,596.3,313z"/>
	<linearGradient id="SVGID_41_" gradientUnits="userSpaceOnUse" x1="560.2482" y1="345.4554" x2="560.2482" y2="319.4608">
		<stop  offset="0" style="stop-color:#CCCCFF"/>
		<stop  offset="1" style="stop-color:#755CBB"/>
	</linearGradient>
	<path class="st48" d="M574.3,321.6c0,0-0.5,1-5.3-2.2c0,0-16.5,10.8-22.9,26c0,0,10.2-14,15.6-15.5c5.4-1.5,6.7,4.1,6.7,4.1
		S570.7,326.2,574.3,321.6z"/>
	<linearGradient id="SVGID_42_" gradientUnits="userSpaceOnUse" x1="316.8006" y1="308.9649" x2="316.8006" y2="299.3114">
		<stop  offset="0" style="stop-color:#CCEDFF"/>
		<stop  offset="1" style="stop-color:#755CBB"/>
	</linearGradient>
	<path class="st49" d="M307.7,299.3c0,0,6.4,10.8,18.3,7.4c0,0-7.1,4.4-14.3,0.8C311.7,307.6,307.2,300.5,307.7,299.3z"/>
	<linearGradient id="SVGID_43_" gradientUnits="userSpaceOnUse" x1="344.8076" y1="338.3959" x2="344.8076" y2="285.6381">
		<stop  offset="0" style="stop-color:#CCCCFF"/>
		<stop  offset="1" style="stop-color:#755CBB"/>
	</linearGradient>
	<path class="st50" d="M349.4,285.6c0,0,8.8,30.1-14.1,52.8c0,0,14.8-7,18.2-23.2C356.8,298.9,349.4,285.6,349.4,285.6z"/>
	<linearGradient id="SVGID_44_" gradientUnits="userSpaceOnUse" x1="492.2245" y1="301.2609" x2="492.2245" y2="261.5596">
		<stop  offset="0" style="stop-color:#CCEDFF"/>
		<stop  offset="1" style="stop-color:#755CBB"/>
	</linearGradient>
	<path class="st51" d="M506.2,261.6c0,0-1,13.6-8.1,23.4c-7.1,9.8-21.1,16.3-21.1,16.3s17.6-6,25.7-14.4
		C510.8,278.5,506.2,261.6,506.2,261.6z"/>
	<linearGradient id="SVGID_45_" gradientUnits="userSpaceOnUse" x1="435.7349" y1="295.8941" x2="435.7349" y2="241.0986">
		<stop  offset="0" style="stop-color:#CCEDFF"/>
		<stop  offset="1" style="stop-color:#755CBB"/>
	</linearGradient>
	<path class="st52" d="M416,241.1c0,0,0,11.4,4,23c4,11.6,38.5,31.8,38.5,31.8s-35.6-13.6-42.4-25.8
		C409.2,257.8,416,241.1,416,241.1z"/>
	<linearGradient id="SVGID_46_" gradientUnits="userSpaceOnUse" x1="415.6399" y1="305.9161" x2="515.0397" y2="305.9161">
		<stop  offset="0" style="stop-color:#8642A0"/>
		<stop  offset="1" style="stop-color:#6456C0"/>
	</linearGradient>
	<path class="st53" d="M415.6,295.2v18.5c0,0,46.3-0.3,98.2,2.8l1.2-16.7C515,299.9,469.9,295,415.6,295.2z"/>
	<g>
		<path class="st54" d="M424.2,299.5c0-0.3,0.2-0.5,0.5-0.5l9.4,0.3c0.9,0,1.7,0.2,2.4,0.4c0.6,0.2,1.2,0.6,1.6,1
			c0.4,0.4,0.7,0.9,0.8,1.5c0.2,0.6,0.2,1.2,0.2,1.9l-0.1,2.4c0,0.7-0.1,1.3-0.3,1.9c-0.2,0.6-0.5,1-0.9,1.4c-0.4,0.4-1,0.7-1.6,0.9
			c-0.7,0.2-1.5,0.3-2.4,0.3l-5-0.1l-1-2.7l-0.1,0l-0.1,2.7l-3.5-0.1L424.2,299.5z M427.5,307.6l6,0.2c0.7,0,1.2-0.1,1.5-0.4
			c0.3-0.3,0.5-0.7,0.5-1.4l0.1-1.9c0-0.7-0.1-1.2-0.4-1.5c-0.3-0.3-0.8-0.4-1.4-0.4l-5.7-0.2c-0.1,0-0.1,0-0.2,0.1
			c0,0-0.1,0.1-0.1,0.2L427.5,307.6z"/>
		<path class="st54" d="M444.1,304.4l-0.1,0l-0.1,3.4c0,0.1,0.1,0.2,0.2,0.2l10.5,0.3l-0.1,3l-13.8-0.4c-0.3,0-0.5-0.2-0.5-0.5
			l0.3-10.6c0-0.3,0.2-0.5,0.5-0.5l13.4,0.4c0.3,0,0.5,0.2,0.5,0.5l-0.1,3l-3.3,1l-0.1,0l0.1-1.5c0-0.1-0.1-0.2-0.2-0.2l-7.1-0.2
			c-0.1,0-0.2,0-0.2,0.1c0,0,0,0.1,0,0.1l0,1.4l5.8,0.2l-0.1,2.3l-4.9-0.1L444.1,304.4z"/>
		<path class="st54" d="M467.6,304.2l-0.1,0l0-1.3c0-0.1-0.1-0.2-0.2-0.2l-6.6-0.2c-0.2,0-0.4,0-0.5,0.1c-0.1,0.1-0.1,0.2-0.2,0.4
			l0,0.3c0,0.2,0,0.4,0.1,0.4c0.1,0.1,0.2,0.1,0.5,0.2l7.7,1.2c0.5,0.1,0.9,0.2,1.2,0.3c0.3,0.1,0.6,0.3,0.8,0.5
			c0.2,0.2,0.4,0.5,0.4,0.8c0.1,0.3,0.1,0.7,0.1,1.1l0,0.9c0,0.5-0.1,0.9-0.2,1.3c-0.1,0.4-0.4,0.7-0.6,0.9
			c-0.3,0.2-0.7,0.4-1.2,0.5c-0.5,0.1-1.1,0.2-1.7,0.1l-11.1-0.3l0.1-3l10,0.3c0.3,0,0.5,0,0.6-0.1c0.1-0.1,0.2-0.3,0.2-0.5l0-0.3
			c0-0.2,0-0.3-0.1-0.4c-0.1-0.1-0.2-0.1-0.4-0.2l-7.5-1.1c-0.5-0.1-0.9-0.2-1.3-0.3c-0.4-0.1-0.6-0.3-0.9-0.5
			c-0.2-0.2-0.4-0.5-0.5-0.8c-0.1-0.3-0.1-0.7-0.1-1.1l0-0.8c0-0.8,0.3-1.5,0.8-1.9c0.5-0.4,1.3-0.7,2.4-0.6l11.1,0.3
			c0.4,0,0.5,0.2,0.5,0.5l-0.1,2.4L467.6,304.2z"/>
		<path class="st54" d="M472.3,311.9l0.4-11.5l3.5,0.1l-0.4,11.5L472.3,311.9z"/>
		<path class="st54" d="M488.9,307.4c0-0.2,0-0.3,0-0.5c0-0.2,0-0.3,0-0.5l0-0.1l3.5,0.1l-0.2,5.6c0,0.3-0.2,0.4-0.4,0.4l-9.4-0.3
			c-0.9,0-1.7-0.2-2.4-0.4c-0.6-0.2-1.2-0.6-1.5-1c-0.4-0.4-0.7-0.9-0.8-1.5c-0.2-0.6-0.2-1.2-0.2-1.9l0.1-2.4
			c0-0.7,0.1-1.3,0.3-1.9c0.2-0.6,0.5-1,0.9-1.4c0.4-0.4,1-0.7,1.6-0.9c0.7-0.2,1.5-0.3,2.4-0.3l9.4,0.3c0.3,0,0.5,0.2,0.5,0.5
			l-0.1,2.5l-3.3,1l-0.1,0l0-1.1c0-0.1,0-0.2-0.1-0.2l-6-0.2c-0.3,0-0.6,0-0.9,0.1c-0.2,0.1-0.4,0.1-0.6,0.3
			c-0.2,0.1-0.3,0.3-0.3,0.6c-0.1,0.2-0.1,0.5-0.1,0.9l-0.1,2c0,0.7,0.1,1.2,0.4,1.5c0.3,0.3,0.8,0.4,1.4,0.5l5.9,0.2
			c0.1,0,0.2-0.1,0.2-0.2L488.9,307.4z"/>
		<path class="st54" d="M499.9,301.1c0.3,0,0.4,0,0.6,0.1c0.1,0.1,0.2,0.2,0.3,0.4l4.5,8.4c0.1,0.1,0.2,0.2,0.3,0.2l0.2,0
			c0.2,0,0.3-0.1,0.3-0.2l0.3-8.7l3.2,0.1l-0.4,11.1c0,0.3-0.2,0.5-0.5,0.4l-5.1-0.1c-0.2,0-0.4,0-0.5-0.1c-0.1-0.1-0.2-0.2-0.3-0.4
			l-4.6-8.4c-0.1-0.1-0.2-0.2-0.3-0.2l-0.2,0c-0.2,0-0.3,0.1-0.3,0.2l-0.3,8.7l-3.2-0.1l0.4-11c0-0.3,0.2-0.5,0.5-0.5L499.9,301.1z"
			/>
	</g>
	<linearGradient id="SVGID_47_" gradientUnits="userSpaceOnUse" x1="424.2103" y1="253.103" x2="488.8972" y2="253.103">
		<stop  offset="0" style="stop-color:#CCCCFF"/>
		<stop  offset="1" style="stop-color:#755CBB"/>
	</linearGradient>
	<path class="st55" d="M488.9,243.6c-1.1,12-5,20.3-9.3,25.9c-5.8,7.7-12.1,10.4-12.1,10.4c-6.3-2.5-11.7-5.7-16.4-9.1
		c-19.9-14.7-26.4-35-26.9-36.7c8.4,18.7,20.8,30.1,30.1,36.4c7.6,5.2,13.2,7.1,13.2,7.1v-6c-1.5-0.5-3-1.1-4.3-1.8
		c-16.5-7.7-25.2-23.6-29.2-34c0,0,0,0,0-0.1c-2.2-5.6-3-9.5-3-9.5h3l-1,1.9l0,0.1c0.5,2,1,3.8,1.6,5.6c0,0.1,0,0.1,0.1,0.1
		c9.2,26.8,33,35.4,33,35.4c16.5-11.2,16.2-29,16.2-29v-2.4l3.1,0.8L488.9,243.6z"/>
	<linearGradient id="SVGID_48_" gradientUnits="userSpaceOnUse" x1="590.502" y1="343.0978" x2="590.502" y2="308.6295">
		<stop  offset="0" style="stop-color:#CCCCFF"/>
		<stop  offset="1" style="stop-color:#755CBB"/>
	</linearGradient>
	<path class="st56" d="M586.8,308.6c0,0-4.5,13.5-0.2,34.5c0,0,2.1-26.6,3.7-28.9c1.6-2.3,6-1.2,6-1.2S589.3,309.4,586.8,308.6z"/>
	<linearGradient id="SVGID_49_" gradientUnits="userSpaceOnUse" x1="537.5872" y1="381.9818" x2="537.5872" y2="277.6041">
		<stop  offset="0" style="stop-color:#CCCCFF"/>
		<stop  offset="1" style="stop-color:#755CBB"/>
	</linearGradient>
	<path class="st57" d="M543.3,382c-3.9-3.2-8.6-8.4-13.3-17c-9.4-17.2-12.1-28.7-12.5-30.8l2.2-3.2l3-26.5l2.8-1.5
		c0,0,9.9-10.1,17.5-25.4c0.1,0.2,0.2,0.6,0.4,1.1v0c1.5,5.5,4.7,26.1,7.6,33.5c1.8,4.6,4.7,7.1,6.8,8.4c0,0-17.2,23.5-18.1,40.3
		C538.9,376.2,542.6,381.2,543.3,382z"/>
	<linearGradient id="SVGID_50_" gradientUnits="userSpaceOnUse" x1="415.7084" y1="431.0097" x2="415.7084" y2="401.0883">
		<stop  offset="0" style="stop-color:#CCCCFF"/>
		<stop  offset="1" style="stop-color:#755CBB"/>
	</linearGradient>
	<path class="st58" d="M441.1,431c0,0-31-4.7-43.7-12.2c0,0,0,0,0,0c0.1-0.6,0.2-1.3,0.2-1.9c-0.3-6.4-6.3-12.1-7.1-15.8
		c0.1,0.3,1,2.3,5.5,5.8c2.8,2.2,7,5,13.3,8.5c0.2,0.1,0.3,0.2,0.5,0.3c8.9,4.9,16.7,8.2,22.2,10.6c0,0,0.1,0,0.1,0
		C436.9,428.4,440.2,429.8,441.1,431C441.1,431,441.1,431,441.1,431z"/>
	<linearGradient id="SVGID_51_" gradientUnits="userSpaceOnUse" x1="478.8362" y1="422.7905" x2="478.8362" y2="408.2596">
		<stop  offset="0" style="stop-color:#CCCCFF"/>
		<stop  offset="1" style="stop-color:#755CBB"/>
	</linearGradient>
	<path class="st59" d="M507.4,408.3c-0.2,1.1-2.9,3.5-3.7,6.2c0,0-11.4,11.1-53.5,7.7c0.3-1.1,9.1,0.5,29.7-3.3
		C499.8,415.2,507,408.7,507.4,408.3z"/>
	<path class="st60" d="M514.4,258.1l-26.9,8l-7.9,3.4l0,0l-5.1,0l-6.9,0l-4.3,0.3l-2.3,0.2l-6.5,0.5l-3.3,0.2L418.8,260l-5.8-1.9
		l-26.6-8.9c0.8-0.3,1.6-0.6,2.4-0.9c17.8-6.5,35.3-14.4,35.3-14.4l6.7-7.6h3c2.7-5.4,4.4-10.4,5.6-14.4l1.8-7.4
		c0.1-0.7,0.2-1.1,0.2-1.1l9.5,4.6l32.1,23.6c0,1.6,0,3.1,0.1,4.3l0.5,3c0.1-0.6,0.1-0.9,0.1-0.9l3.1,0.8l2.1,4.6
		c0,0,3.6,5.1,17.8,10.9C509.1,255.4,511.7,256.7,514.4,258.1z"/>
	<g>
		<linearGradient id="SVGID_52_" gradientUnits="userSpaceOnUse" x1="478.1404" y1="236.0203" x2="478.1404" y2="136.6163">
			<stop  offset="1.598750e-02" style="stop-color:#FFC2A9"/>
			<stop  offset="1" style="stop-color:#FF9595"/>
		</linearGradient>
		<path class="st61" d="M493.9,235.5c0,0-12.6,2.6-26.4-3.6c-13.9-6.2-25.5-24.4-26.2-28.9c-0.7-4.6,5.3-16.4,5.3-25.7
			s-4.9-25.2,3.4-33.8c8.3-8.6,46.5-9.9,58.8,1.1c0,0,3.8,8.9,3.8,13.9c0,1.2-0.2,3-0.6,5c-0.1,0.8-0.3,1.6-0.4,2.4
			c-1.1,6.1-2.6,13.5-1.9,16.7c0.3,1.1,0.6,2.2,1.1,3.2v0c1.5,3.2,3.8,5.8,4.2,8.6C515.5,198.1,510.2,224.1,493.9,235.5z"/>
		<linearGradient id="SVGID_53_" gradientUnits="userSpaceOnUse" x1="437.8937" y1="195.9086" x2="437.8937" y2="166.6019">
			<stop  offset="1.598750e-02" style="stop-color:#FFC2A9"/>
			<stop  offset="1" style="stop-color:#FF9595"/>
		</linearGradient>
		<path class="st62" d="M446.5,174.6c0,0-3.4-7.9-12-8c0,0-5,1.8-5.8,5.4c0,0,1.9,12.8,4,18.8c2.1,6,9.9,5.1,9.9,5.1
			S449.3,186.3,446.5,174.6z"/>
		<linearGradient id="SVGID_54_" gradientUnits="userSpaceOnUse" x1="493.2172" y1="206.9737" x2="494.4733" y2="200.4333">
			<stop  offset="0" style="stop-color:#E1616A"/>
			<stop  offset="1" style="stop-color:#FF8883"/>
		</linearGradient>
		<path class="st63" d="M479.6,200.7c0,0,2.9-0.2,4.1,0.6c1.2,0.9,5.7,4.9,11.4,6c5.7,1.1,9.5-3.4,10.7-3.6c1.2-0.2,2.5,1.4,2.5,1.4
			s-0.5-1.8-3.5-2.7c0,0-1.2,4.2-9.5,2.8c-8.3-1.4-11.8-4.8-11.8-4.8l-0.4-0.7C483.3,199.7,480.9,200.1,479.6,200.7z"/>
		<linearGradient id="SVGID_55_" gradientUnits="userSpaceOnUse" x1="481.0994" y1="202.0962" x2="481.0994" y2="138.0601">
			<stop  offset="0" style="stop-color:#FFEADB"/>
			<stop  offset="0.9944" style="stop-color:#C27CB6"/>
		</linearGradient>
		<path class="st64" d="M467.4,161.3l0.1-0.8c0,0,8.2-13.3,24.5-13.7c16.3-0.4,20,9,20,9l3-4.2l-6.9-12.9l-47.9-0.7l-11.7,8.7
			l-1.5,21.2l5.2,28l12.6,6.2l3.6-2.9c-1.3-9.4-8.9-17.9-8.9-17.9l5.5-3.5c0,0,14.2,6.3,22.4,4.4c0,0,6.2-16.6,5.8-28.8
			C493.3,153.3,472.3,156.2,467.4,161.3z"/>
		<path class="st65" d="M466.7,162.3c0,0,0.8-4.8,9.6-6.7c9.8-2.1,17.7-3.9,17.7-3.9s-1.7,5.3-5,7.2c0,0-10.4-0.3-15.6,0.8
			C468.2,160.7,466.7,162.3,466.7,162.3z"/>
		<path class="st65" d="M512,155.9c0,0-5,3.5-8.3,11.9c0,0,3.2-3.9,6.2-3.8c2,0,1.7,1.9,1.7,1.9S513.6,160.8,512,155.9z"/>
		<linearGradient id="SVGID_56_" gradientUnits="userSpaceOnUse" x1="477.7098" y1="175.8719" x2="477.7098" y2="163.1867">
			<stop  offset="0" style="stop-color:#CF6074"/>
			<stop  offset="1" style="stop-color:#F37270"/>
		</linearGradient>
		<path class="st66" d="M470,175.9c0,0,0.5-10.1,11.3-12.7c0,0,3.8,4.6,4.2,9.8C485.5,172.9,479.8,172,470,175.9z"/>
		<linearGradient id="SVGID_57_" gradientUnits="userSpaceOnUse" x1="505.19" y1="179.8972" x2="505.19" y2="168.8585">
			<stop  offset="0" style="stop-color:#CF6074"/>
			<stop  offset="1" style="stop-color:#FF817F"/>
		</linearGradient>
		<path class="st67" d="M500.7,179.9c0,0,0.9-8.1,5.9-11c0,0,3.4,2.4,3.1,9.1C509.7,178,506.7,177,500.7,179.9z"/>
		<path class="st68" d="M470,175.9c0,0,3.5,3.9,13.2,4.7c0,0,1.9-2.6,1.7-7.7C484.9,172.9,475.9,172.1,470,175.9z"/>
		<path class="st68" d="M500.7,179.9v1.2c0,0,1.5,2.9,6.9,3.4c0,0,1.7-2.5,1.9-6.5C509.5,177.9,506,177.1,500.7,179.9z"/>
		<path class="st69" d="M480.4,172.7c0,0-2.5,2.8-2.3,7.1c0,0,3.2,0.7,5.1,0.8c0,0,2.1-2.7,1.7-7.7
			C484.9,172.9,482.1,172.3,480.4,172.7z"/>
		<path class="st69" d="M505.8,178.1c0,0-1.4,1.4-1.7,5.6c0,0,1.9,0.8,3.4,0.8c0,0,2-2.6,1.9-6.5
			C509.5,177.9,508.1,177.4,505.8,178.1z"/>
		<path class="st65" d="M479.6,180.1c0,0-0.9-5.5,2.5-7.6l2.8,0.3c0,0,0.9,4.3-1.7,7.7C483.2,180.6,480.4,180.3,479.6,180.1z"/>
		<path class="st65" d="M507,177.8c0,0-1.3,2.4-1.8,6.2c0,0,1,0.4,2.4,0.4c0,0,1.9-2.1,1.9-6.5C509.5,177.9,508,177.6,507,177.8z"/>
		<path class="st70" d="M470,175.9c0,0,6.5-3.5,17.6-1.5l-2.1-1.4C485.5,172.9,477.6,170.7,470,175.9z"/>
		<path class="st70" d="M500.7,179.9c0,0,5.2-2.5,11.3-1.2l-2.5-1.7C509.5,177,505.4,176.4,500.7,179.9z"/>
		<path class="st9" d="M477,175.9c0,0,1.8-0.4,3.4,1.1C480.3,177,478.2,177.6,477,175.9z"/>
		<path class="st9" d="M503.1,180.6c0,0,2.8-0.5,3.7,0.7C506.8,181.3,505.3,182.2,503.1,180.6z"/>
		<path class="st71" d="M470.6,176.5c0,0,5,4.6,13.1,5.7l0.2-2.7l-0.7,1.1C483.2,180.6,475.4,180.2,470.6,176.5z"/>
		<path class="st71" d="M500.7,181.1c0,0,0.9,3,7.5,4.3l-0.2-1.5l-0.4,0.5C507.6,184.5,502.9,183.9,500.7,181.1z"/>
		<path class="st72" d="M487.5,192.9c0,0,2.5-0.5,7,0c4.5,0.5,9.6,1.6,12.3,0c0,0-3.7,3.4-6.9,3.9c-3.2,0.5-8-2.1-8-2.1l-2.1,0
			C489.8,194.8,488.2,194.1,487.5,192.9z"/>
		<path class="st73" d="M490.1,194.8c0,0,1.1-0.7,2-0.5s1.9,1.4,1.9,1.4S492,194.8,490.1,194.8z"/>
		<path class="st74" d="M506.8,192.9c1.2-1.1-4.9-11.1-7.8-11.4s-5.7,11.2-5.7,11.2s4.1,0.5,8,1
			C505.2,194.2,506.8,192.9,506.8,192.9z"/>
		<linearGradient id="SVGID_58_" gradientUnits="userSpaceOnUse" x1="506.3182" y1="186.3204" x2="506.3182" y2="161.4803">
			<stop  offset="0" style="stop-color:#FFEADB"/>
			<stop  offset="0.9944" style="stop-color:#C27CB6"/>
		</linearGradient>
		<path class="st75" d="M511.2,161.5c-1.7-0.2-7.5,6.3-7.5,6.3s-3.7,10.6-3,13.7c0.7,3.1,9.7,4.8,9.7,4.8l0.4-0.6v0
			c-0.5-1-0.9-2-1.1-3.2c-0.7-3.2,0.8-10.6,1.9-16.7c0,0,0.4-1.2,0.4-2.4C512.1,162.5,511.9,161.6,511.2,161.5z"/>
		<linearGradient id="SVGID_59_" gradientUnits="userSpaceOnUse" x1="479.5894" y1="237.2704" x2="479.5894" y2="116.7181">
			<stop  offset="0" style="stop-color:#2E33A0"/>
			<stop  offset="1" style="stop-color:#0665A5"/>
		</linearGradient>
		<path class="st76" d="M510.9,204.4c-1.9-3.6-0.7-5.4-16.9-7.4c-22.9-2.8-24.8,3.7-28.7,2.7c-0.1,0-0.3-0.1-0.5-0.2
			c-4.2-1.5-14.1-10.5-14.4-22.6c-0.3-12.6,8.9-21.5,8.9-21.5c-3.3-2.6-4.6-10-1.1-13.2c3.6-3.2,9.7-2.4,24.6-1
			c15,1.5,15,0.6,15,0.6c4.8,1.1,7.5,5.2,8.3,6.5c0.2,0.3,0.2,0.4,0.2,0.4l1.9-1.6c5,6.7,4.1,14,4.1,14s8.2-15.4,7.3-17.5
			c-1.7-4-6.4-9.9-6.7-10.2l0,0c0,0-1.3-11.7-5.3-11.7c-4,0-20.9,3.5-20.9,3.5c1.9-4,1.6-8.7,1.6-8.7s0,0-0.1,0.1
			c-5.5,4.6-10.9,5.1-18.6,8.3c-3.9,1.7-5.7,3.2-7.2,4.8l-0.5,0.6l-0.5,0.6c-0.5,0.6-1.1,1.2-1.7,1.9c0,0-0.1,0.1-0.1,0.1
			c0,0,0,0,0,0c-0.6,0.6-1.3,1.2-2.2,1.9c-5,3.8-16.1,6.3-17.4,10.3c-1.3,4,1.7,9.4,3.3,15c1.6,5.6,0.9,10.6,0.9,10.6
			s5.3,6.3,3.5,15.4c-1.6,8.2-5,9.5-5,9.5c-2.4,4.5-1.3,8.7-1.3,8.7c4.9,17.9,25.1,28.6,25.1,28.6c18,6.2,29.9,3.5,29.9,3.5s0,0,0,0
			c13.1-7.9,17.6-33.9,17.8-35.1C513.8,201.9,511.4,205.4,510.9,204.4z M502.8,221c-3.2-0.5-3.8-7.9-4.9-8.9c-1.1-1-6.8-0.6-6.8-0.6
			s-5.3,5.5-7.4,5.7c-2.1,0.2-13.4-4.1-11-10.4c2.4-6.3,11-7.2,11-7.2s4.4,3.4,11,3.8c6.6,0.4,9-0.7,9.8-1c0.8-0.3,5.1,1.5,5,7
			C509.4,213.3,506,221.5,502.8,221z"/>
		<path class="st77" d="M502,183.8c0,0,5.7,6.5,5.2,9c-0.6,2.7-7.2,4.1-7.2,4.1s5.3-1.7,6.4-4.1C506.3,192.7,505,187.8,502,183.8z"
			/>
		<linearGradient id="SVGID_60_" gradientUnits="userSpaceOnUse" x1="513.9786" y1="161.3557" x2="513.9786" y2="133.5457">
			<stop  offset="0" style="stop-color:#FFEADB"/>
			<stop  offset="0.9944" style="stop-color:#8860C7"/>
		</linearGradient>
		<path class="st78" d="M512.4,161.4c0,0,0.9-7.3-4.1-14c4-6.6,4.6-13.8,4.6-13.8l0,0c1.4,3.1,2.2,9.1,2.2,9.1l4.6,1.1
			C520.6,146,512.4,161.4,512.4,161.4z"/>
		<linearGradient id="SVGID_61_" gradientUnits="userSpaceOnUse" x1="472.8192" y1="237.2704" x2="472.8192" y2="116.7181">
			<stop  offset="0" style="stop-color:#CCC2DB"/>
			<stop  offset="0.9944" style="stop-color:#8860C7"/>
		</linearGradient>
		<path class="st79" d="M506.2,148.5c-0.8-1.3-3.5-5.4-8.3-6.5c0,0,0,0.8-15-0.6c-15-1.5-21.1-2.2-24.6,1
			c-3.6,3.2-2.3,10.6,1.1,13.2c0,0-9.1,8.9-8.9,21.5c0.3,12.1,10.2,21.1,14.4,22.6l-0.2,1.3c0,0,0.7,27.7,8.1,29.9
			c7.3,2.2,22.5,1.1,23.9,2.4c1.3,1.2-0.2,3.4-0.3,3.6c0,0,0,0,0,0s-11.8,2.7-29.9-3.5c0,0-20.2-10.7-25.1-28.6c0,0-1.1-4.2,1.3-8.7
			c0,0,3.4-1.3,5-9.5c1.7-9.2-3.5-15.4-3.5-15.4s0.7-5-0.9-10.6c-1.6-5.6-4.6-11.1-3.3-15c8.5,1.2,14-2.8,14-2.8s1.5-1.9,8-2.9
			s32.9,1.5,32.9,1.5s-2.6-2-8.2-3.4c-5.3-1.3-23.2,0.2-25.1,0.3c2.1-0.3,22.4-3.6,24.7-2.9c2.5,0.7,11.3,4.4,11.3,4.4
			c-0.8-3.7-8.7-12.7-8.7-12.7s-11.1,0.2-18.4,1.6c-6.5,1.2-10.1,4-10.8,4.6l1.7-1.9l0.5-0.6l0.5-0.6l2.5-0.4l12.8-4.8
			c4.3-2.1,9.8-7.3,10.5-8c0,0,0.1-0.1,0.1-0.1s0.3,4.6-1.6,8.7c10.8-1.2,14.4-0.6,14.4-0.6C506,131.2,506.2,148.5,506.2,148.5z"/>
		<linearGradient id="SVGID_62_" gradientUnits="userSpaceOnUse" x1="481.5984" y1="237.2418" x2="481.5984" y2="232.0624">
			<stop  offset="0" style="stop-color:#776D7E"/>
			<stop  offset="1" style="stop-color:#9D68C2"/>
		</linearGradient>
		<path class="st80" d="M466.4,233.2c0,0,6.6-1.4,16.6-1.1c10,0.4,15.7,0.4,13.2,4.6C496.2,236.7,483.7,239.3,466.4,233.2z"/>
		<linearGradient id="SVGID_63_" gradientUnits="userSpaceOnUse" x1="498.1022" y1="125.3701" x2="498.1022" y2="121.5222">
			<stop  offset="0" style="stop-color:#1F77D1"/>
			<stop  offset="1" style="stop-color:#0686C9"/>
		</linearGradient>
		<path class="st81" d="M501.1,124.8c0,0,6.1-2.2,8.5-1.8c0,0-0.9-1.2-1.9-1.4c-1-0.2-21,3.8-21,3.8S499.1,124,501.1,124.8z"/>
		<linearGradient id="SVGID_64_" gradientUnits="userSpaceOnUse" x1="471.4789" y1="138.0391" x2="471.4789" y2="126.662">
			<stop  offset="0" style="stop-color:#1F77D1"/>
			<stop  offset="1" style="stop-color:#0686C9"/>
		</linearGradient>
		<path class="st82" d="M488.8,126.8c0,0-0.5,6.1-2.6,8.3l-24.7,2.9l-7.3-1.2c0,0,2.8-1.1,5.9-4.4
			C463.2,129.1,479.3,125.9,488.8,126.8z"/>
		<linearGradient id="SVGID_65_" gradientUnits="userSpaceOnUse" x1="516.2556" y1="143.8071" x2="516.2556" y2="133.5457">
			<stop  offset="0" style="stop-color:#1F77D1"/>
			<stop  offset="1" style="stop-color:#0686C9"/>
		</linearGradient>
		<path class="st83" d="M512.9,133.5c0,0,2,6,2.2,9.2l4.6,1.1C519.6,143.8,518.2,139.3,512.9,133.5z"/>
		<linearGradient id="SVGID_66_" gradientUnits="userSpaceOnUse" x1="442.1107" y1="188.919" x2="428.7864" y2="172.595">
			<stop  offset="0" style="stop-color:#FFEADB"/>
			<stop  offset="0.9944" style="stop-color:#B060F4"/>
		</linearGradient>
		<path class="st84" d="M445.5,185.4c0,0-1.7-7.7-6-11.5c-4.3-3.8-9.1-2.6-9.1-2.6s1.3,14.3,2.7,17.7c1.4,3.5,3.5,4.4,3.5,4.4
			s-3-2.4-3.4-7.1c-0.4-4.7-0.5-11.4,0.6-12.2c1.1-0.8,5.7,2.3,5.7,2.3s-1.4,1.6-2.3,5.8s2.3,7.2,3.5,7.2c1.2-0.1-0.1-4.9,0.1-6.2
			C441,181.8,443.7,182.2,445.5,185.4z"/>
		<linearGradient id="SVGID_67_" gradientUnits="userSpaceOnUse" x1="443.724" y1="186.933" x2="437.2578" y2="179.0111">
			<stop  offset="0" style="stop-color:#FFEADB"/>
			<stop  offset="0.9944" style="stop-color:#B060F4"/>
		</linearGradient>
		<path class="st85" d="M441.2,175.8c0,0-4.7,2.8-4.2,8.6c0.5,5.8,4.1,5.5,4.1,4.3c0-1.2-0.7-4.3-0.3-6.1c0.4-1.8,3.5-1,3.5-1
			S442.3,177.1,441.2,175.8z"/>
		<path class="st86" d="M514,201.6c0,0-5.8,24.3-17.8,35.1C496.2,236.7,509.9,231.7,514,201.6z"/>
		<path class="st86" d="M507.6,121.5c0,0,3.1,2.2,3.6,9.8c0.6,7.6-3,16-3,16s4.6-6.3,5-13.2C513.7,127.2,510,122.4,507.6,121.5z"/>
	</g>
	<linearGradient id="SVGID_68_" gradientUnits="userSpaceOnUse" x1="470.6534" y1="139.0567" x2="494.7982" y2="139.0567">
		<stop  offset="0" style="stop-color:#1F77D1"/>
		<stop  offset="1" style="stop-color:#0686C9"/>
	</linearGradient>
	<path class="st87" d="M470.7,137.4c0,0,7.1,2.2,14.8,2.8c7.7,0.6,9.3,0.8,9.3,0.8s-3.1-2.8-9.7-3.6
		C478.4,136.6,470.7,137.4,470.7,137.4z"/>
	<linearGradient id="SVGID_69_" gradientUnits="userSpaceOnUse" x1="504.7087" y1="205.5411" x2="512.0319" y2="205.5411">
		<stop  offset="0" style="stop-color:#1F77D1"/>
		<stop  offset="1" style="stop-color:#0686C9"/>
	</linearGradient>
	<path class="st88" d="M504.8,202.1c0,0,3.4,0,4.7,3.9c1.1,3.1,1.4,5.8,1.4,5.8l1.2-4.3c0,0-1.6-5.4-3.2-6.6
		c-1.2-0.9-3.2-1.8-4.1-1.6L504.8,202.1z"/>
	<linearGradient id="SVGID_70_" gradientUnits="userSpaceOnUse" x1="495.6673" y1="200.5273" x2="503.566" y2="200.5273">
		<stop  offset="0" style="stop-color:#1F77D1"/>
		<stop  offset="1" style="stop-color:#0686C9"/>
	</linearGradient>
	<path class="st89" d="M495.7,198.2l0.6,4.6c0,0,4.1,0.3,6.8-0.7l0.5-2.8C503.6,199.3,498.3,198.1,495.7,198.2z"/>
	<path class="st86" d="M514.4,258.1c0,0,24.1,16.2,27.2,21.8c3.1,5.6,4.4,23.1,8.6,30.6c0,0-2.9-12.4-4.9-22.1
		c-2-9.7-1.5-9.8-2.7-12.2C541.6,273.8,523.6,262.3,514.4,258.1z"/>
	<path class="st86" d="M510.1,348.3c0,0-11.6,45.8-11.1,48.9c0.5,3.1,8,9.4,8.4,11.1c0,0-5.7,7.1-5.5,8.7s10.1,11.5,9.8,14.6
		c-0.1,0.9-6.4,10.6-6.4,10.6s7.2-9.5,7.5-11c0.4-1.5-8.8-14.2-9.1-15.5c-0.7-3.3,4.6-5.8,4.7-8c0.2-2.2-7.1-7.6-7.2-11.1
		C501.3,392.8,510.1,348.3,510.1,348.3z"/>
	<path class="st86" d="M541.2,528.7c-4.4-19.3-12.8-45-28.7-71.4c0,0,15.6,32.6,26.4,72.1C539.7,529.2,540.4,529,541.2,528.7z"/>
	<path class="st74" d="M353.3,247.6c0,0-6.5-1.3-9.2-6.5c-2.7-5.2-0.9-12.8-0.9-12.8s5.1,9,7.6,12
		C353.4,243.4,354,246.9,353.3,247.6z"/>
</g>
<g>
	<path class="st90" d="M553.7,220.3l4.5,118.2c0.2,4.7,4.4,8.4,9.5,8.4h221.1c5.1,0,9.3-3.8,9.5-8.5l3.1-119.6
		c0.1-4.9-4.2-8.9-9.5-8.9l-228.7,1.4C557.8,211.3,553.5,215.4,553.7,220.3z"/>
	<g>
		<path class="st91" d="M788.8,347.2H567.7c-5.3,0-9.6-3.8-9.8-8.7l-4.5-118.2c-0.1-2.5,0.9-4.8,2.7-6.6c1.9-1.8,4.3-2.8,7-2.8
			l228.7-1.4c2.7,0,5.2,0.9,7.1,2.7c1.9,1.8,2.9,4.1,2.8,6.5l-3.1,119.6C798.5,343.4,794.2,347.2,788.8,347.2z M791.9,210.2
			C791.9,210.2,791.9,210.2,791.9,210.2l-228.8,1.4c-2.5,0-4.8,0.9-6.5,2.6c-1.7,1.6-2.6,3.8-2.5,6.1l4.5,118.2
			c0.2,4.5,4.2,8.1,9.1,8.1h221.1c4.9,0,9-3.7,9.1-8.2l3.1-119.6c0.1-2.3-0.9-4.4-2.6-6.1C796.7,211.1,794.4,210.2,791.9,210.2z"/>
	</g>
	<linearGradient id="SVGID_71_" gradientUnits="userSpaceOnUse" x1="553.9279" y1="218.1683" x2="801.5147" y2="218.1683">
		<stop  offset="0" style="stop-color:#9D68C2"/>
		<stop  offset="1" style="stop-color:#AEC2FF"/>
	</linearGradient>
	<path class="st92" d="M554.1,226.3h247l0.4-6.2c0.4-5.5-4.4-10.1-10.4-10.1l-228.6,1.7c-4.8,0-8.6,3.7-8.5,8L554.1,226.3z"/>
	<linearGradient id="SVGID_72_" gradientUnits="userSpaceOnUse" x1="604.2932" y1="304.2677" x2="604.2932" y2="235.5124">
		<stop  offset="0" style="stop-color:#CCEDFF"/>
		<stop  offset="1" style="stop-color:#9D68C2"/>
	</linearGradient>
	<polygon class="st93" points="566.5,235.9 566.5,304.3 642.1,304.3 642.1,235.5 	"/>
	<linearGradient id="SVGID_73_" gradientUnits="userSpaceOnUse" x1="731.6238" y1="270.7462" x2="731.6238" y2="240.4609">
		<stop  offset="0" style="stop-color:#CCEDFF"/>
		<stop  offset="1" style="stop-color:#9D68C2"/>
	</linearGradient>
	<rect x="715.2" y="240.5" class="st94" width="32.9" height="30.3"/>
	<linearGradient id="SVGID_74_" gradientUnits="userSpaceOnUse" x1="770.4324" y1="270.7462" x2="770.4324" y2="240.4609">
		<stop  offset="0" style="stop-color:#CCEDFF"/>
		<stop  offset="1" style="stop-color:#9D68C2"/>
	</linearGradient>
	<rect x="754" y="240.5" class="st95" width="32.9" height="30.3"/>
	<linearGradient id="SVGID_75_" gradientUnits="userSpaceOnUse" x1="692.1667" y1="270.7462" x2="692.1667" y2="240.4609">
		<stop  offset="0" style="stop-color:#CCEDFF"/>
		<stop  offset="1" style="stop-color:#9D68C2"/>
	</linearGradient>
	<rect x="675.7" y="240.5" class="st96" width="32.9" height="30.3"/>
	<rect x="702.8" y="288.4" class="st97" width="84.1" height="7.3"/>
	<rect x="681.7" y="299.4" class="st97" width="105.2" height="2.2"/>
	<rect x="682.7" y="274.6" class="st97" width="20.1" height="2.2"/>
	<rect x="721.6" y="274.6" class="st97" width="20.1" height="2.2"/>
	<rect x="760.4" y="274.6" class="st97" width="20.1" height="2.2"/>
	<rect x="675.7" y="303.1" class="st97" width="33.8" height="2.2"/>
	<rect x="681.7" y="306.7" class="st97" width="105.2" height="2.2"/>
	<rect x="675.7" y="310.3" class="st97" width="111.2" height="2.2"/>
	<rect x="675.7" y="313.9" class="st97" width="111.2" height="2.2"/>
	<rect x="681.7" y="328.5" class="st97" width="105.2" height="2.2"/>
	<rect x="675.7" y="332.1" class="st97" width="111.2" height="2.2"/>
	<rect x="675.7" y="335.7" class="st97" width="111.2" height="2.2"/>
	<rect x="675.7" y="317.5" class="st97" width="106.7" height="2.2"/>
	<rect x="681.7" y="321.1" class="st97" width="105.2" height="2.2"/>
	<rect x="675.7" y="324.7" class="st97" width="90.1" height="2.2"/>
	<g>
		<path class="st98" d="M587.7,290.6c-11.9,0-21.5-8.9-21.5-19.8c0-10.9,9.7-19.8,21.5-19.8c11.9,0,21.5,8.9,21.5,19.8
			C609.2,281.7,599.5,290.6,587.7,290.6z M587.7,252.2c-11.1,0-20.1,8.3-20.1,18.5c0,10.2,9,18.5,20.1,18.5
			c11.1,0,20.1-8.3,20.1-18.5C607.8,260.5,598.8,252.2,587.7,252.2z"/>
	</g>
	<ellipse class="st9" cx="587.7" cy="270.7" rx="11.7" ry="10.8"/>
	<g>
		<path class="st98" d="M642.1,255.3c-11.9,0-21.5-8.9-21.5-19.8c0-10.9,9.7-19.8,21.5-19.8c11.9,0,21.5,8.9,21.5,19.8
			C663.6,246.4,654,255.3,642.1,255.3z M642.1,217c-11.1,0-20.1,8.3-20.1,18.5c0,10.2,9,18.5,20.1,18.5c11.1,0,20.1-8.3,20.1-18.5
			C662.2,225.3,653.2,217,642.1,217z"/>
	</g>
	<ellipse class="st9" cx="642.1" cy="235.5" rx="11" ry="10.1"/>
	<g>
		<polygon class="st9" points="562.7,217.1 564.3,214.9 572.8,221.7 571.5,223.4 		"/>
		<polygon class="st9" points="573,217.1 571.4,214.9 562.9,221.7 564.2,223.4 		"/>
	</g>
	<rect x="719" y="216.3" class="st9" width="76.1" height="3.5"/>
</g>
<g>
	<linearGradient id="SVGID_76_" gradientUnits="userSpaceOnUse" x1="338.4058" y1="196.3338" x2="338.4058" y2="164.6329">
		<stop  offset="0" style="stop-color:#D93DE3"/>
		<stop  offset="1" style="stop-color:#FF6DBA"/>
	</linearGradient>
	<polygon class="st99" points="318.4,165.6 318.4,196 357.9,196.3 358.4,164.6 	"/>
	<linearGradient id="SVGID_77_" gradientUnits="userSpaceOnUse" x1="359.4506" y1="196.3338" x2="359.4506" y2="164.6329">
		<stop  offset="0" style="stop-color:#A242EA"/>
		<stop  offset="1" style="stop-color:#FE117E"/>
	</linearGradient>
	<polygon class="st100" points="358.4,164.6 361,168.6 359.7,196.3 357.9,196.3 	"/>
	<polygon class="st9" points="325.4,175.9 329.1,171 348.8,186.2 345.8,190 	"/>
	<polygon class="st9" points="349.3,175.9 345.7,171 325.9,186.2 329,190 	"/>
</g>
<g>
	<linearGradient id="SVGID_78_" gradientUnits="userSpaceOnUse" x1="333.0826" y1="530.9532" x2="350.3992" y2="393.0768">
		<stop  offset="0" style="stop-color:#067EFF"/>
		<stop  offset="1" style="stop-color:#3E37A0"/>
	</linearGradient>
	<path class="st101" d="M410.6,523.6H275.4c-6,0-10.9-4.4-11.1-10l-2.5-102.1c-0.1-5.7,4.9-10.4,11.1-10.4h140.8
		c6.2,0,11.2,4.7,11.1,10.5l-3,102.1C421.5,519.2,416.6,523.6,410.6,523.6z"/>
	<g>
		<path class="st102" d="M410.6,523.9H275.4c-6.2,0-11.3-4.6-11.4-10.3l-2.5-102.1c-0.1-2.9,1.1-5.6,3.3-7.6c2.2-2,5.1-3.2,8.2-3.2
			h140.8c3.1,0,6,1.1,8.2,3.2c2.2,2.1,3.3,4.8,3.2,7.6l-3,102.1C421.8,519.4,416.8,523.9,410.6,523.9z M272.8,401.4
			c-2.9,0-5.6,1.1-7.7,3c-2,1.9-3.1,4.4-3.1,7.1l2.5,102.1c0.1,5.3,4.9,9.6,10.7,9.6h135.2c5.9,0,10.6-4.2,10.7-9.6l3-102.1
			c0.1-2.7-1-5.2-3-7.2c-2-1.9-4.8-3-7.7-3H272.8z"/>
	</g>
	<g>
		<rect x="298.2" y="422" class="st9" width="71.1" height="2.8"/>
		<rect x="298.2" y="428.8" class="st9" width="35.6" height="2.8"/>
		<rect x="298.2" y="434.5" class="st9" width="35.6" height="2.8"/>
		<rect x="337.8" y="434.5" class="st9" width="28.3" height="2.8"/>
		<rect x="298.2" y="440.2" class="st9" width="57.3" height="2.8"/>
		<rect x="298.2" y="445.9" class="st9" width="20.4" height="2.8"/>
		<rect x="322.8" y="463" class="st9" width="35.3" height="2.8"/>
		<rect x="298.2" y="451.6" class="st9" width="63.9" height="2.8"/>
		<rect x="298.2" y="457.3" class="st9" width="49.2" height="2.8"/>
		<rect x="298.2" y="463" class="st9" width="23.1" height="2.8"/>
		<rect x="298.2" y="468.7" class="st9" width="35.6" height="2.8"/>
		<rect x="298.2" y="474.4" class="st9" width="10.2" height="2.8"/>
		<rect x="312.6" y="474.4" class="st9" width="37" height="2.8"/>
		<rect x="322.8" y="479.9" class="st9" width="35.3" height="2.8"/>
		<rect x="298.2" y="479.9" class="st9" width="23.1" height="2.8"/>
		<rect x="298.2" y="485.6" class="st9" width="35.6" height="2.8"/>
		<rect x="298.2" y="491.3" class="st9" width="10.2" height="2.8"/>
		<rect x="312.6" y="491.3" class="st9" width="37" height="2.8"/>
	</g>
</g>
<linearGradient id="SVGID_79_" gradientUnits="userSpaceOnUse" x1="767.1082" y1="192.8844" x2="767.1082" y2="181.3778">
	<stop  offset="0" style="stop-color:#459FFF"/>
	<stop  offset="1" style="stop-color:#A96DFF"/>
</linearGradient>
<path class="st103" d="M773.4,187.1c0,3.2-2.8,5.8-6.2,5.8c-3.5,0-6.2-2.6-6.2-5.8s2.8-5.8,6.2-5.8
	C770.6,181.4,773.4,184,773.4,187.1z"/>
<linearGradient id="SVGID_80_" gradientUnits="userSpaceOnUse" x1="179.8176" y1="327.7243" x2="179.8176" y2="313.4031">
	<stop  offset="0" style="stop-color:#459FFF"/>
	<stop  offset="1" style="stop-color:#A96DFF"/>
</linearGradient>
<path class="st104" d="M187.6,320.6c0,4-3.5,7.2-7.8,7.2s-7.8-3.2-7.8-7.2s3.5-7.2,7.8-7.2S187.6,316.6,187.6,320.6z"/>
<linearGradient id="SVGID_81_" gradientUnits="userSpaceOnUse" x1="785.4615" y1="192.8844" x2="785.4615" y2="181.3778">
	<stop  offset="0" style="stop-color:#B31A8F"/>
	<stop  offset="1" style="stop-color:#FE117E"/>
</linearGradient>
<ellipse class="st105" cx="785.5" cy="187.1" rx="6.2" ry="5.8"/>
<linearGradient id="SVGID_82_" gradientUnits="userSpaceOnUse" x1="382.5026" y1="230.7592" x2="382.5026" y2="222.6227">
	<stop  offset="0" style="stop-color:#B31A8F"/>
	<stop  offset="1" style="stop-color:#FE117E"/>
</linearGradient>
<ellipse class="st106" cx="382.5" cy="226.7" rx="4.4" ry="4.1"/>
<linearGradient id="SVGID_83_" gradientUnits="userSpaceOnUse" x1="678.4691" y1="410.2851" x2="678.4691" y2="402.1486">
	<stop  offset="0" style="stop-color:#8642A0"/>
	<stop  offset="1" style="stop-color:#6456C0"/>
</linearGradient>
<ellipse class="st107" cx="678.5" cy="406.2" rx="4.4" ry="4.1"/>
<linearGradient id="SVGID_84_" gradientUnits="userSpaceOnUse" x1="219.0864" y1="450.4159" x2="219.0864" y2="443.142">
	<stop  offset="0" style="stop-color:#8642A0"/>
	<stop  offset="1" style="stop-color:#6456C0"/>
</linearGradient>
<ellipse class="st108" cx="219.1" cy="446.8" rx="4" ry="3.6"/>
<g>
	<linearGradient id="SVGID_85_" gradientUnits="userSpaceOnUse" x1="252.2336" y1="411.0682" x2="252.2336" y2="350.9901">
		<stop  offset="0" style="stop-color:#D906E3"/>
		<stop  offset="1" style="stop-color:#FF6DF9"/>
	</linearGradient>
	<path class="st109" d="M286.4,411.1h-68.2c-5.5,0-10-4-10.2-9.1l-1.5-41.3c-0.2-5.3,4.4-9.7,10.2-9.7h71.1c5.7,0,10.4,4.4,10.2,9.7
		l-1.4,41.3C296.4,407,291.9,411.1,286.4,411.1z"/>
	<g>
		<path class="st110" d="M286.4,411.4h-68.2c-5.7,0-10.3-4.1-10.5-9.4l-1.5-41.3c-0.1-2.7,1-5.2,3-7.1c2-1.9,4.7-3,7.6-3h71.1
			c2.9,0,5.6,1,7.6,2.9c2,1.9,3.1,4.4,3,7L297,402C296.8,407.3,292.2,411.4,286.4,411.4z M216.7,351.3c-2.7,0-5.2,1-7.1,2.8
			s-2.8,4.1-2.8,6.6l1.5,41.3c0.2,4.9,4.5,8.8,9.8,8.8h68.2c5.3,0,9.7-3.9,9.8-8.8l1.4-41.3c0.1-2.5-0.9-4.8-2.8-6.6
			c-1.9-1.8-4.4-2.8-7.1-2.8H216.7z"/>
	</g>
	<g>
		<polygon class="st9" points="236.4,365.8 219.6,383.8 236.7,397.2 236.7,390.3 226.8,382.4 236,372.8 		"/>
	</g>
	<g>
		<polygon class="st9" points="266,366.6 282.8,384.6 265.6,398 265.6,391.1 275.6,383.2 264.5,372.4 		"/>
	</g>
	<g>
		<polygon class="st9" points="240,397.2 254.7,367.4 261.6,367.4 245,397.2 		"/>
	</g>
</g>
<g>
	<linearGradient id="SVGID_86_" gradientUnits="userSpaceOnUse" x1="702.764" y1="496.1077" x2="702.764" y2="420.9509">
		<stop  offset="0" style="stop-color:#D906E3"/>
		<stop  offset="1" style="stop-color:#FF6DF9"/>
	</linearGradient>
	<path class="st111" d="M745.5,496.1h-85.4c-6.9,0-12.5-5-12.7-11.3l-1.9-51.7c-0.2-6.6,5.5-12.1,12.7-12.1h89
		c7.2,0,13,5.5,12.7,12.1l-1.7,51.7C758.1,491.1,752.4,496.1,745.5,496.1z"/>
	<g>
		<path class="st110" d="M745.5,496.4h-85.4c-7.1,0-12.8-5.1-13.1-11.6l-1.9-51.7c-0.1-3.3,1.2-6.4,3.7-8.8c2.5-2.4,5.8-3.7,9.4-3.7
			h89c3.6,0,6.9,1.3,9.4,3.7c2.5,2.4,3.8,5.5,3.7,8.8l-1.7,51.7C758.4,491.3,752.7,496.4,745.5,496.4z M658.3,421.3
			c-3.4,0-6.6,1.2-8.9,3.5c-2.4,2.2-3.6,5.2-3.5,8.3l1.9,51.7c0.2,6.2,5.7,11,12.4,11h85.4c6.7,0,12.2-4.9,12.4-11.1l1.7-51.7
			c0.1-3.1-1.1-6.1-3.5-8.3c-2.4-2.2-5.5-3.5-8.9-3.5H658.3z"/>
	</g>
	<rect x="662.6" y="429.3" class="st97" width="78.2" height="42.8"/>
	<polygon class="st9" points="694.8,439.9 694.8,461.4 714.8,449.7 	"/>
	<rect x="662.6" y="479.9" class="st97" width="78.2" height="3.9"/>
	<rect x="662.6" y="479.9" class="st9" width="20.2" height="3.9"/>
</g>
<g>
	<g>
		
			<linearGradient id="SVGID_87_" gradientUnits="userSpaceOnUse" x1="620.3027" y1="400.919" x2="613.8819" y2="345.8087" gradientTransform="matrix(0.9656 0.26 -0.26 0.9656 102.4669 -94.2522)">
			<stop  offset="0" style="stop-color:#1852A0"/>
			<stop  offset="1" style="stop-color:#067ED3"/>
		</linearGradient>
		<path class="st112" d="M605.4,415.8l-4.1,10.7C603.5,420.6,606.8,416.7,605.4,415.8z M601.3,426.5l-4.1,10.7
			C598.2,437,599,432.4,601.3,426.5z M605.4,415.8l-4.1,10.7C603.5,420.6,606.8,416.7,605.4,415.8z M601.3,426.5l-4.1,10.7
			C598.2,437,599,432.4,601.3,426.5z M613.1,435.8l4,2.1l4.3-10.8l-4.6-0.7c0.1-0.4,0.2-0.8,0.2-1.2c0.3-1.8,0.4-3.6,0.4-5.4
			l4.8-2.8l-2.2-9.5l-4.6,4c-0.6-1.2-1.4-2.3-2.3-3.2c-0.3-0.3-0.5-0.5-0.8-0.7l2.8-6l-7.5-2.2l0,0l-1.8,6c-1.7,0-3.4,0.4-5.1,1.1
			l-0.8-5.7l-8.2,5.7l1.9,5c-1.5,1.6-2.8,3.4-4,5.4l-4-2.1l-4.3,10.8l4.6,0.7c-0.5,2.3-0.7,4.5-0.6,6.6l-4.8,2.8l2.2,9.5l4.6-4
			c0.8,1.5,1.9,2.9,3.1,3.9l-2.8,6l7.4,2.6l1.1-3.8l0.8-2.6c1.7,0,3.4-0.4,5.1-1.1l0.8,5.7l8.2-5.7l-1.9-5c1.2-1.2,2.3-2.6,3.2-4.1
			C612.6,436.7,612.8,436.3,613.1,435.8z M601.3,426.5c-2.3,5.9,0,12.1-4.1,10.7c-4.1-1.3-5.6-7.2-3.3-13.1
			c2.3-5.9,7.4-9.7,11.5-8.4C609.5,417.1,603.5,420.6,601.3,426.5z M605.4,415.8l-4.1,10.7C603.5,420.6,606.8,416.7,605.4,415.8z
			 M601.3,426.5l-4.1,10.7C598.2,437,599,432.4,601.3,426.5z"/>
	</g>
	
		<linearGradient id="SVGID_88_" gradientUnits="userSpaceOnUse" x1="614.0793" y1="401.185" x2="614.0793" y2="344.8191" gradientTransform="matrix(0.9656 0.26 -0.26 0.9656 102.4669 -94.2522)">
		<stop  offset="0" style="stop-color:#1852A0"/>
		<stop  offset="1" style="stop-color:#067ED3"/>
	</linearGradient>
	<path class="st113" d="M617,437.9l4.3-10.8l-4.4-1.9l-0.7-0.3l0.5-5.9l4.8-2.2l-1.6-9.2l-10.6-3.2l1.9,4.3l3.7-6.9l-7.5-2.2
		l-3.1-0.9l-7.4-2.6l-1.4,4.6l-6.4-2.8l-8.2,5.7l2.5,6.2l-7.7,19.7l-3.8,12.8l7.3,0.7L577,448l7.4,2.6l10.5,3.2l-1.7-3.1l-1.1-1.9
		l3.9,1.2l6.7,2l8.2-5.7l-5.1-5.5l6.4-3.6L617,437.9z M593.9,424.1c2.3-5.9,7.4-9.7,11.5-8.4l-4.1,10.7l-4.1,10.7
		C593.1,435.9,591.6,430,593.9,424.1z"/>
	<g>
		
			<linearGradient id="SVGID_89_" gradientUnits="userSpaceOnUse" x1="573.9034" y1="413.5488" x2="569.7496" y2="377.8963" gradientTransform="matrix(0.9438 0.3306 -0.5202 1.4851 256.8991 -353.3934)">
			<stop  offset="0" style="stop-color:#188DC1"/>
			<stop  offset="1" style="stop-color:#06BFE7"/>
		</linearGradient>
		<path class="st114" d="M606.5,434.7l4.3-10.8l-4.6-0.7c0.5-2.3,0.7-4.5,0.6-6.5l4.8-2.8l-2.2-9.5l-4.6,4c-0.8-1.5-1.9-2.9-3.1-3.9
			l2.8-6l-7.4-2.6l-1.9,6.4c-1.7,0-3.4,0.4-5.1,1.1l-0.8-5.7l-8.2,5.7l1.9,5c-1.5,1.6-2.8,3.4-4,5.4l-4-2.1l-4.3,10.8l4.6,0.7
			c-0.5,2.3-0.7,4.5-0.6,6.5l-4.8,2.8l2.2,9.5l4.6-4c0.8,1.5,1.9,2.9,3.1,3.9l-2.8,6l7.4,2.6l1.9-6.4c1.7,0,3.4-0.4,5.1-1.1l0.8,5.7
			l8.2-5.7l-1.9-5c1.5-1.6,2.8-3.4,4-5.4L606.5,434.7z M586.6,434.1c-4.1-1.3-5.6-7.2-3.3-13.1c2.3-5.9,7.4-9.7,11.5-8.4
			c4.1,1.3,5.6,7.2,3.3,13.1C595.9,431.7,590.7,435.4,586.6,434.1z"/>
	</g>
	<polygon class="st115" points="622.1,417.1 611.6,413.9 606.8,416.7 617.3,419.9 	"/>
	<polygon class="st116" points="611,446.3 600.4,443.1 598.5,438 609.1,441.2 	"/>
	<polygon class="st115" points="601.7,404.7 607.4,406.2 609.4,404.5 613.2,405.6 615,401.8 604.5,398.7 	"/>
	<path class="st115" d="M586.3,444.2l5.5,2.1l-0.5-3.2C591.3,443.1,588.4,444.6,586.3,444.2z"/>
	<path class="st115" d="M587.1,415.1l9.3,4.5c0,0,1.3-1.7,2.4-2.3C598.8,417.3,596.4,407.9,587.1,415.1z"/>
</g>
<polygon class="st117" points="373.5,94.6 382.5,111.1 376.5,113.6 368.1,98.4 "/>
<polygon class="st118" points="171.5,480 179.8,488.4 183.1,484.9 175.3,477 "/>
<polygon class="st119" points="593.5,195.5 585.2,200.2 581.8,194.4 591,189.4 "/>
<polygon class="st119" points="634.7,491.3 622.7,499.1 619.4,493.3 631,487 "/>
<g>
	<linearGradient id="SVGID_90_" gradientUnits="userSpaceOnUse" x1="639.074" y1="160.9731" x2="653.9827" y2="105.6049">
		<stop  offset="0" style="stop-color:#188DC1"/>
		<stop  offset="1" style="stop-color:#06BFE7"/>
	</linearGradient>
	<polygon class="st120" points="618.9,155.5 616.8,112.2 678.5,112.2 675.9,155.4 	"/>
	<linearGradient id="SVGID_91_" gradientUnits="userSpaceOnUse" x1="611.8088" y1="154.1767" x2="622.6884" y2="113.7719">
		<stop  offset="0" style="stop-color:#1852A0"/>
		<stop  offset="1" style="stop-color:#067ED3"/>
	</linearGradient>
	<polygon class="st121" points="616.8,112.2 615,114.8 616.8,155.5 618.9,155.5 	"/>
	<polygon class="st9" points="637.3,120.9 627.6,119.9 629,149.6 637.3,148.8 637.3,145.8 632.5,145.9 631.9,123 637.3,123.1 	"/>
	<polygon class="st9" points="657.1,120.9 666.8,119.9 665.5,149.6 657.1,148.8 657.1,145.8 661.9,145.9 662.5,123 657.1,123.1 	"/>
</g>
<g>
	
		<linearGradient id="SVGID_92_" gradientUnits="userSpaceOnUse" x1="364.4932" y1="254.1082" x2="374.6568" y2="216.3625" gradientTransform="matrix(-1 0 0 1 544.6559 0)">
		<stop  offset="0" style="stop-color:#188DC1"/>
		<stop  offset="1" style="stop-color:#06BFE7"/>
	</linearGradient>
	<polygon class="st122" points="193.9,250.4 195.3,220.9 153.3,220.9 155,250.3 	"/>
	
		<linearGradient id="SVGID_93_" gradientUnits="userSpaceOnUse" x1="345.9059" y1="249.4749" x2="353.3227" y2="221.9301" gradientTransform="matrix(-1 0 0 1 544.6559 0)">
		<stop  offset="0" style="stop-color:#1852A0"/>
		<stop  offset="1" style="stop-color:#067ED3"/>
	</linearGradient>
	<polygon class="st123" points="195.3,220.9 196.6,222.6 195.3,250.4 193.9,250.4 	"/>
	<path class="st9" d="M179.1,226.8c0,0,4.6-0.2,5.4,0.2c0.8,0.3-0.2,7.3-0.2,7.3l1.8,1.6l-1.7,1.5c0,0,0.1,7-1,7.6
		c-1.1,0.6-4.8,0-4.8,0v-1.7c0,0,3,0.2,3.5-0.2c0.5-0.4,0.5-6.5,0.5-6.5l0.8-0.8l-0.8-0.9c0,0,0.2-4.4,0.1-5.6
		c-0.1-0.8-3.6-0.8-3.6-0.8V226.8z"/>
	<path class="st9" d="M168.6,226.8c0,0-4.6-0.2-5.4,0.2c-0.8,0.3,0.2,7.3,0.2,7.3l-1.8,1.6l1.7,1.5c0,0-0.1,7,1,7.6
		c1.1,0.6,4.8,0,4.8,0v-1.7c0,0-3,0.2-3.5-0.2c-0.5-0.4-0.5-6.5-0.5-6.5l-0.8-0.8l0.8-0.9c0,0-0.2-4.4-0.1-5.6
		c0.1-0.8,3.6-0.8,3.6-0.8V226.8z"/>
</g>
<g>
	<g>
		<path class="st91" d="M548.4,159.4l-10.3-24.8l26.7,5.1L548.4,159.4z M539.2,135.5l9.4,22.6l15-17.9L539.2,135.5z"/>
	</g>
	<g>
		<polygon class="st91" points="622.2,511.2 621.6,510.8 630.7,499.4 631.3,499.8 		"/>
	</g>
	<g>
		<polygon class="st91" points="537.3,406.4 527.6,395.3 528.1,394.9 537.9,406 		"/>
	</g>
	<g>
		<polygon class="st91" points="237.6,484.6 218.2,471.6 218.6,471.1 238,484.1 		"/>
	</g>
	<g>
		<polygon class="st91" points="221.1,486.8 220.6,486.4 235.1,468.9 235.7,469.3 		"/>
	</g>
	<g>
		<polygon class="st91" points="206.3,294.7 193.8,288.6 194.1,288 206.6,294.1 		"/>
	</g>
	<g>
		<polygon class="st91" points="688.5,138.9 688,138.5 702.5,123.2 703,123.7 		"/>
	</g>
	<g>
		<polygon class="st91" points="412.7,188 406.2,176 406.8,175.7 413.3,187.7 		"/>
	</g>
	<g>
		<polygon class="st91" points="304,391 303.6,390.5 320.3,377.6 320.7,378.1 		"/>
	</g>
</g>
<rect x="62" y="47" class="st124" width="839" height="515"/>
</svg>
